  0
SECTION
  2
HEADER
  9
$ACADVER
  1
AC1024
  9
$ACADMAINTVER
 70
     6
  9
$DWGCODEPAGE
  3
ANSI_1252
  9
$LASTSAVEDBY
  1
Jenna
  9
$INSBASE
 10
0.0
 20
0.0
 30
0.0
  9
$EXTMIN
 10
0.0
 20
0.0
 30
0.0
  9
$EXTMAX
 10
304.8
 20
304.8
 30
0.0
  9
$LIMMIN
 10
0.0
 20
0.0
  9
$LIMMAX
 10
304.8
 20
304.8
  9
$ORTHOMODE
 70
     0
  9
$REGENMODE
 70
     1
  9
$FILLMODE
 70
     1
  9
$QTEXTMODE
 70
     0
  9
$MIRRTEXT
 70
     1
  9
$LTSCALE
 40
1.0
  9
$ATTMODE
 70
     1
  9
$TEXTSIZE
 40
3.5
  9
$TRACEWID
 40
1.0
  9
$TEXTSTYLE
  7
Standard
  9
$CLAYER
  8
0
  9
$CELTYPE
  6
ByLayer
  9
$CECOLOR
 62
   256
  9
$CELTSCALE
 40
1.0
  9
$DISPSILH
 70
     0
  9
$DIMSCALE
 40
1.0
  9
$DIMASZ
 40
3.302
  9
$DIMEXO
 40
1.27
  9
$DIMDLI
 40
3.75
  9
$DIMRND
 40
0.0
  9
$DIMDLE
 40
0.0
  9
$DIMEXE
 40
3.175
  9
$DIMTP
 40
0.0
  9
$DIMTM
 40
0.0
  9
$DIMTXT
 40
3.5
  9
$DIMCEN
 40
2.5
  9
$DIMTSZ
 40
0.0
  9
$DIMTOL
 70
     0
  9
$DIMLIM
 70
     0
  9
$DIMTIH
 70
     1
  9
$DIMTOH
 70
     1
  9
$DIMSE1
 70
     0
  9
$DIMSE2
 70
     0
  9
$DIMTAD
 70
     1
  9
$DIMZIN
 70
     0
  9
$DIMBLK
  1

  9
$DIMASO
 70
     1
  9
$DIMSHO
 70
     1
  9
$DIMPOST
  1

  9
$DIMAPOST
  1

  9
$DIMALT
 70
     0
  9
$DIMALTD
 70
     3
  9
$DIMALTF
 40
0.0393700787
  9
$DIMLFAC
 40
0.5
  9
$DIMTOFL
 70
     1
  9
$DIMTVP
 40
0.0
  9
$DIMTIX
 70
     0
  9
$DIMSOXD
 70
     0
  9
$DIMSAH
 70
     0
  9
$DIMBLK1
  1

  9
$DIMBLK2
  1

  9
$DIMSTYLE
  2
ISO-25
  9
$DIMCLRD
 70
     0
  9
$DIMCLRE
 70
     0
  9
$DIMCLRT
 70
     0
  9
$DIMTFAC
 40
1.0
  9
$DIMGAP
 40
1.524
  9
$DIMJUST
 70
     0
  9
$DIMSD1
 70
     0
  9
$DIMSD2
 70
     0
  9
$DIMTOLJ
 70
     0
  9
$DIMTZIN
 70
     0
  9
$DIMALTZ
 70
     0
  9
$DIMALTTZ
 70
     0
  9
$DIMUPT
 70
     0
  9
$DIMDEC
 70
     2
  9
$DIMTDEC
 70
     2
  9
$DIMALTU
 70
     2
  9
$DIMALTTD
 70
     3
  9
$DIMTXSTY
  7
Standard
  9
$DIMAUNIT
 70
     0
  9
$DIMADEC
 70
     2
  9
$DIMALTRND
 40
0.0
  9
$DIMAZIN
 70
     0
  9
$DIMDSEP
 70
    44
  9
$DIMATFIT
 70
     3
  9
$DIMFRAC
 70
     0
  9
$DIMLDRBLK
  1

  9
$DIMLUNIT
 70
     2
  9
$DIMLWD
 70
    -2
  9
$DIMLWE
 70
    -2
  9
$DIMTMOVE
 70
     0
  9
$DIMFXL
 40
1.0
  9
$DIMFXLON
 70
     0
  9
$DIMJOGANG
 40
0.7853981633974483
  9
$DIMTFILL
 70
     0
  9
$DIMTFILLCLR
 70
     0
  9
$DIMARCSYM
 70
     0
  9
$DIMLTYPE
  6

  9
$DIMLTEX1
  6

  9
$DIMLTEX2
  6

  9
$DIMTXTDIRECTION
 70
     0
  9
$LUNITS
 70
     2
  9
$LUPREC
 70
     2
  9
$SKETCHINC
 40
1.0
  9
$FILLETRAD
 40
10.0
  9
$AUNITS
 70
     0
  9
$AUPREC
 70
     2
  9
$MENU
  1
.
  9
$ELEVATION
 40
0.0
  9
$PELEVATION
 40
0.0
  9
$THICKNESS
 40
0.0
  9
$LIMCHECK
 70
     0
  9
$CHAMFERA
 40
0.0
  9
$CHAMFERB
 40
0.0
  9
$CHAMFERC
 40
0.0
  9
$CHAMFERD
 40
0.0
  9
$SKPOLY
 70
     0
  9
$TDCREATE
 40
2457037.82450934
  9
$TDUCREATE
 40
2457038.032842674
  9
$TDUPDATE
 40
2457037.825929306
  9
$TDUUPDATE
 40
2457038.034262639
  9
$TDINDWG
 40
0.0003968634
  9
$TDUSRTIMER
 40
2457038.033866528
  9
$USRTIMER
 70
     1
  9
$ANGBASE
 50
0.0
  9
$ANGDIR
 70
     0
  9
$PDMODE
 70
     0
  9
$PDSIZE
 40
-1.0
  9
$PLINEWID
 40
0.0
  9
$SPLFRAME
 70
     0
  9
$SPLINETYPE
 70
     6
  9
$SPLINESEGS
 70
     8
  9
$HANDSEED
  5
214
  9
$SURFTAB1
 70
     6
  9
$SURFTAB2
 70
     6
  9
$SURFTYPE
 70
     6
  9
$SURFU
 70
     6
  9
$SURFV
 70
     6
  9
$UCSBASE
  2

  9
$UCSNAME
  2

  9
$UCSORG
 10
0.0
 20
0.0
 30
0.0
  9
$UCSXDIR
 10
1.0
 20
0.0
 30
0.0
  9
$UCSYDIR
 10
0.0
 20
1.0
 30
0.0
  9
$UCSORTHOREF
  2

  9
$UCSORTHOVIEW
 70
     0
  9
$UCSORGTOP
 10
0.0
 20
0.0
 30
0.0
  9
$UCSORGBOTTOM
 10
0.0
 20
0.0
 30
0.0
  9
$UCSORGLEFT
 10
0.0
 20
0.0
 30
0.0
  9
$UCSORGRIGHT
 10
0.0
 20
0.0
 30
0.0
  9
$UCSORGFRONT
 10
0.0
 20
0.0
 30
0.0
  9
$UCSORGBACK
 10
0.0
 20
0.0
 30
0.0
  9
$PUCSBASE
  2

  9
$PUCSNAME
  2

  9
$PUCSORG
 10
0.0
 20
0.0
 30
0.0
  9
$PUCSXDIR
 10
1.0
 20
0.0
 30
0.0
  9
$PUCSYDIR
 10
0.0
 20
1.0
 30
0.0
  9
$PUCSORTHOREF
  2

  9
$PUCSORTHOVIEW
 70
     0
  9
$PUCSORGTOP
 10
0.0
 20
0.0
 30
0.0
  9
$PUCSORGBOTTOM
 10
0.0
 20
0.0
 30
0.0
  9
$PUCSORGLEFT
 10
0.0
 20
0.0
 30
0.0
  9
$PUCSORGRIGHT
 10
0.0
 20
0.0
 30
0.0
  9
$PUCSORGFRONT
 10
0.0
 20
0.0
 30
0.0
  9
$PUCSORGBACK
 10
0.0
 20
0.0
 30
0.0
  9
$USERI1
 70
     0
  9
$USERI2
 70
     0
  9
$USERI3
 70
     0
  9
$USERI4
 70
     0
  9
$USERI5
 70
     0
  9
$USERR1
 40
0.0
  9
$USERR2
 40
0.0
  9
$USERR3
 40
0.0
  9
$USERR4
 40
0.0
  9
$USERR5
 40
0.0
  9
$WORLDVIEW
 70
     1
  9
$SHADEDGE
 70
     3
  9
$SHADEDIF
 70
    70
  9
$TILEMODE
 70
     1
  9
$MAXACTVP
 70
    64
  9
$PINSBASE
 10
0.0
 20
0.0
 30
0.0
  9
$PLIMCHECK
 70
     0
  9
$PEXTMIN
 10
1.000000000000000E+20
 20
1.000000000000000E+20
 30
1.000000000000000E+20
  9
$PEXTMAX
 10
-1.000000000000000E+20
 20
-1.000000000000000E+20
 30
-1.000000000000000E+20
  9
$PLIMMIN
 10
0.0
 20
0.0
  9
$PLIMMAX
 10
0.0
 20
0.0
  9
$UNITMODE
 70
     0
  9
$VISRETAIN
 70
     1
  9
$PLINEGEN
 70
     0
  9
$PSLTSCALE
 70
     1
  9
$TREEDEPTH
 70
  3020
  9
$CMLSTYLE
  2
Standard
  9
$CMLJUST
 70
     0
  9
$CMLSCALE
 40
20.0
  9
$PROXYGRAPHICS
 70
     1
  9
$MEASUREMENT
 70
     1
  9
$CELWEIGHT
370
    -1
  9
$ENDCAPS
280
     0
  9
$JOINSTYLE
280
     0
  9
$LWDISPLAY
290
     1
  9
$INSUNITS
 70
     4
  9
$HYPERLINKBASE
  1

  9
$STYLESHEET
  1

  9
$XEDIT
290
     1
  9
$CEPSNTYPE
380
     0
  9
$PSTYLEMODE
290
     1
  9
$FINGERPRINTGUID
  2
{99FAB7B6-EE83-441B-86F7-AEA02804FC7B}
  9
$VERSIONGUID
  2
{FAEB1C32-E019-11D5-929B-00C0DF256EC4}
  9
$EXTNAMES
290
     1
  9
$PSVPSCALE
 40
0.0
  9
$OLESTARTUP
290
     0
  9
$SORTENTS
280
   127
  9
$INDEXCTL
280
     0
  9
$HIDETEXT
280
     1
  9
$XCLIPFRAME
280
     2
  9
$HALOGAP
280
     0
  9
$OBSCOLOR
 70
   257
  9
$OBSLTYPE
280
     0
  9
$INTERSECTIONDISPLAY
280
     0
  9
$INTERSECTIONCOLOR
 70
   257
  9
$DIMASSOC
280
     2
  9
$PROJECTNAME
  1

  9
$CAMERADISPLAY
290
     0
  9
$LENSLENGTH
 40
50.0
  9
$CAMERAHEIGHT
 40
0.0
  9
$STEPSPERSEC
 40
2.0
  9
$STEPSIZE
 40
6.0
  9
$3DDWFPREC
 40
2.0
  9
$PSOLWIDTH
 40
0.25
  9
$PSOLHEIGHT
 40
4.0
  9
$LOFTANG1
 40
1.570796326794897
  9
$LOFTANG2
 40
1.570796326794897
  9
$LOFTMAG1
 40
0.0
  9
$LOFTMAG2
 40
0.0
  9
$LOFTPARAM
 70
     7
  9
$LOFTNORMALS
280
     1
  9
$LATITUDE
 40
37.795
  9
$LONGITUDE
 40
-122.394
  9
$NORTHDIRECTION
 40
0.0
  9
$TIMEZONE
 70
 -8000
  9
$LIGHTGLYPHDISPLAY
280
     1
  9
$TILEMODELIGHTSYNCH
280
     1
  9
$SOLIDHIST
280
     0
  9
$SHOWHIST
280
     1
  9
$DWFFRAME
280
     2
  9
$DGNFRAME
280
     2
  9
$REALWORLDSCALE
290
     1
  9
$INTERFERECOLOR
 62
   256
  9
$CSHADOW
280
     0
  9
$SHADOWPLANELOCATION
 40
0.0
  0
ENDSEC
  0
SECTION
  2
CLASSES
  0
CLASS
  1
ACDBDICTIONARYWDFLT
  2
AcDbDictionaryWithDefault
  3
ObjectDBX Classes
 90
        0
 91
        5
280
     0
281
     0
  0
CLASS
  1
VISUALSTYLE
  2
AcDbVisualStyle
  3
ObjectDBX Classes
 90
     4095
 91
        5
280
     0
281
     0
  0
CLASS
  1
MATERIAL
  2
AcDbMaterial
  3
ObjectDBX Classes
 90
     1153
 91
        5
280
     0
281
     0
  0
CLASS
  1
SCALE
  2
AcDbScale
  3
ObjectDBX Classes
 90
     1153
 91
        5
280
     0
281
     0
  0
CLASS
  1
SUN
  2
AcDbSun
  3
SCENEOE
 90
     1153
 91
        5
280
     0
281
     0
  0
CLASS
  1
ACDBPLACEHOLDER
  2
AcDbPlaceHolder
  3
ObjectDBX Classes
 90
        0
 91
        1
280
     0
281
     0
  0
CLASS
  1
LAYOUT
  2
AcDbLayout
  3
ObjectDBX Classes
 90
        0
 91
        1
280
     0
281
     0
  0
CLASS
  1
TABLESTYLE
  2
AcDbTableStyle
  3
ObjectDBX Classes
 90
     4095
 91
        5
280
     0
281
     0
  0
CLASS
  1
MLEADERSTYLE
  2
AcDbMLeaderStyle
  3
ACDB_MLEADERSTYLE_CLASS
 90
     4095
 91
        5
280
     0
281
     0
  0
CLASS
  1
RASTERVARIABLES
  2
AcDbRasterVariables
  3
ISM
 90
        0
 91
        5
280
     0
281
     0
  0
CLASS
  1
CELLSTYLEMAP
  2
AcDbCellStyleMap
  3
ObjectDBX Classes
 90
     1152
 91
        5
280
     0
281
     0
  0
CLASS
  1
DICTIONARYVAR
  2
AcDbDictionaryVar
  3
ObjectDBX Classes
 90
        0
 91
        5
280
     0
281
     0
  0
ENDSEC
  0
SECTION
  2
TABLES
  0
TABLE
  2
VPORT
  5
8
330
0
100
AcDbSymbolTable
 70
     1
  0
VPORT
  5
29
330
8
100
AcDbSymbolTableRecord
100
AcDbViewportTableRecord
  2
*Active
 70
     0
 10
0.0
 20
0.0
 11
1.0
 21
1.0
 12
152.4
 22
152.4
 13
0.0
 23
0.0
 14
10.0
 24
10.0
 15
10.0
 25
10.0
 16
0.0
 26
0.0
 36
1.0
 17
0.0
 27
0.0
 37
0.0
 40
304.8
 41
1.0
 42
50.0
 43
0.0
 44
0.0
 50
0.0
 51
0.0
 71
     0
 72
  2000
 73
     1
 74
     3
 75
     0
 76
     0
 77
     0
 78
     0
281
     0
 65
     1
110
0.0
120
0.0
130
0.0
111
1.0
121
0.0
131
0.0
112
0.0
122
1.0
132
0.0
 79
     0
146
0.0
348
1EC
 60
     3
 61
     5
292
     1
282
     1
141
0.0
142
0.0
 63
   256
361
209
  0
ENDTAB
  0
TABLE
  2
LTYPE
  5
5
330
0
100
AcDbSymbolTable
 70
     6
  0
LTYPE
  5
14
330
5
100
AcDbSymbolTableRecord
100
AcDbLinetypeTableRecord
  2
ByBlock
 70
     0
  3

 72
    65
 73
     0
 40
0.0
  0
LTYPE
  5
15
330
5
100
AcDbSymbolTableRecord
100
AcDbLinetypeTableRecord
  2
ByLayer
 70
     0
  3

 72
    65
 73
     0
 40
0.0
  0
LTYPE
  5
16
330
5
100
AcDbSymbolTableRecord
100
AcDbLinetypeTableRecord
  2
Continuous
 70
     0
  3
Solid line
 72
    65
 73
     0
 40
0.0
  0
LTYPE
  5
6A
330
5
100
AcDbSymbolTableRecord
100
AcDbLinetypeTableRecord
  2
HIDDEN
 70
     0
  3
Hidden __ __ __ __ __ __ __ __ __ __ __ __ __ __
 72
    65
 73
     2
 40
1.905
 49
1.27
 74
     0
 49
-0.635
 74
     0
  0
LTYPE
  5
6B
330
5
100
AcDbSymbolTableRecord
100
AcDbLinetypeTableRecord
  2
PHANTOM
 70
     0
  3
Phantom ______  __  __  ______  __  __  ______
 72
    65
 73
     6
 40
12.7
 49
6.35
 74
     0
 49
-1.27
 74
     0
 49
1.27
 74
     0
 49
-1.27
 74
     0
 49
1.27
 74
     0
 49
-1.27
 74
     0
  0
LTYPE
  5
6C
330
5
100
AcDbSymbolTableRecord
100
AcDbLinetypeTableRecord
  2
CENTER
 70
     0
  3
Center ____ _ ____ _ ____ _ ____ _ ____ _ ____
 72
    65
 73
     4
 40
10.16
 49
6.35
 74
     0
 49
-1.27
 74
     0
 49
1.27
 74
     0
 49
-1.27
 74
     0
  0
LTYPE
  5
6D
330
5
100
AcDbSymbolTableRecord
100
AcDbLinetypeTableRecord
  2
CENTERX2
 70
     0
  3
Center (2x) ________  __  ________  __  _____
 72
    65
 73
     4
 40
20.32
 49
12.7
 74
     0
 49
-2.54
 74
     0
 49
2.54
 74
     0
 49
-2.54
 74
     0
  0
LTYPE
  5
6E
330
5
100
AcDbSymbolTableRecord
100
AcDbLinetypeTableRecord
  2
DOT2
 70
     0
  3
Dot (.5x) ........................................
 72
    65
 73
     2
 40
0.635
 49
0.0
 74
     0
 49
-0.635
 74
     0
  0
ENDTAB
  0
TABLE
  2
LAYER
  5
2
330
0
100
AcDbSymbolTable
 70
     1
  0
LAYER
  5
10
330
2
100
AcDbSymbolTableRecord
100
AcDbLayerTableRecord
  2
0
 70
     0
 62
     7
  6
Continuous
370
    -3
390
F
347
203
  0
ENDTAB
  0
TABLE
  2
STYLE
  5
3
330
0
100
AcDbSymbolTable
 70
     1
  0
STYLE
  5
11
330
3
100
AcDbSymbolTableRecord
100
AcDbTextStyleTableRecord
  2
Standard
 70
     0
 40
0.0
 41
1.0
 50
0.0
 71
     0
 42
3.5
  3
txt
  4

  0
ENDTAB
  0
TABLE
  2
VIEW
  5
6
330
0
100
AcDbSymbolTable
 70
     0
  0
ENDTAB
  0
TABLE
  2
UCS
  5
7
330
0
100
AcDbSymbolTable
 70
     0
  0
ENDTAB
  0
TABLE
  2
APPID
  5
9
330
0
100
AcDbSymbolTable
 70
     1
  0
APPID
  5
12
330
9
100
AcDbSymbolTableRecord
100
AcDbRegAppTableRecord
  2
ACAD
 70
     0
  0
ENDTAB
  0
TABLE
  2
DIMSTYLE
  5
A
330
0
100
AcDbSymbolTable
 70
     1
100
AcDbDimStyleTable
  0
DIMSTYLE
105
27
330
A
100
AcDbSymbolTableRecord
100
AcDbDimStyleTableRecord
  2
ISO-25
 70
     0
 41
2.5
 42
0.625
 43
3.75
 44
1.25
 73
     0
 74
     0
 77
     1
 78
     8
140
2.5
141
2.5
143
0.0393700787
147
0.625
171
     3
172
     1
178
     0
271
     2
272
     2
274
     3
278
    44
283
     0
284
     8
340
11
  0
ENDTAB
  0
TABLE
  2
BLOCK_RECORD
  5
1
330
0
100
AcDbSymbolTable
 70
     1
  0
BLOCK_RECORD
  5
1F
330
1
100
AcDbSymbolTableRecord
100
AcDbBlockTableRecord
  2
*Model_Space
340
22
 70
     0
280
     1
281
     0
  0
BLOCK_RECORD
  5
1B
330
1
100
AcDbSymbolTableRecord
100
AcDbBlockTableRecord
  2
*Paper_Space
340
1E
 70
     0
280
     1
281
     0
  0
BLOCK_RECORD
  5
23
330
1
100
AcDbSymbolTableRecord
100
AcDbBlockTableRecord
  2
*Paper_Space0
340
26
 70
     0
280
     1
281
     0
  0
ENDTAB
  0
ENDSEC
  0
SECTION
  2
BLOCKS
  0
BLOCK
  5
20
330
1F
100
AcDbEntity
  8
0
100
AcDbBlockBegin
  2
*Model_Space
 70
     0
 10
0.0
 20
0.0
 30
0.0
  3
*Model_Space
  1
*Model_Space
  0
ENDBLK
  5
21
330
1F
100
AcDbEntity
  8
0
100
AcDbBlockEnd
  0
BLOCK
  5
1C
330
1B
100
AcDbEntity
 67
     1
  8
0
100
AcDbBlockBegin
  2
*Paper_Space
 70
     0
 10
0.0
 20
0.0
 30
0.0
  3
*Paper_Space
  1
*Paper_Space
  0
ENDBLK
  5
1D
330
1B
100
AcDbEntity
 67
     1
  8
0
100
AcDbBlockEnd
  0
BLOCK
  5
24
330
23
100
AcDbEntity
  8
0
100
AcDbBlockBegin
  2
*Paper_Space0
 70
     0
 10
0.0
 20
0.0
 30
0.0
  3
*Paper_Space0
  1
*Paper_Space0
  0
ENDBLK
  5
25
330
23
100
AcDbEntity
  8
0
100
AcDbBlockEnd
  0
ENDSEC
  0
SECTION
  2
ENTITIES
  0
ARC
  5
6F
330
1F
100
AcDbEntity
  8
0
  6
Continuous
 62
     5
370
    15
100
AcDbCircle
 10
19.8063320924
 20
299.4018011134
 30
0.0
 40
0.3174999999999989
100
AcDbArc
 50
273.8159545118
 51
330.0
  0
ARC
  5
70
330
1F
100
AcDbEntity
  8
0
  6
Continuous
 62
     5
370
    15
100
AcDbCircle
 10
20.7788691756
 20
299.8162847537
 30
0.0
 40
0.3174999999999989
100
AcDbArc
 50
90.0
 51
150.0
  0
ARC
  5
71
330
1F
100
AcDbEntity
  8
0
  6
Continuous
 62
     5
370
    15
100
AcDbCircle
 10
20.8440517546
 20
299.8162847537
 30
0.0
 40
0.3174999999999989
100
AcDbArc
 50
30.0
 51
90.0
  0
ARC
  5
72
330
1F
100
AcDbEntity
  8
0
  6
Continuous
 62
     5
370
    15
100
AcDbCircle
 10
21.8165888378
 20
299.4018011134
 30
0.0
 40
0.3174999999999989
100
AcDbArc
 50
210.0
 51
266.1840454882
  0
LINE
  5
73
330
1F
100
AcDbEntity
  8
0
  6
Continuous
 62
     1
370
    15
100
AcDbLine
 10
22.1449604909
 20
281.1573242018
 30
0.0
 11
22.1449604909
 21
278.7750762603
 31
0.0
  0
ARC
  5
74
330
1F
100
AcDbEntity
  8
0
  6
Continuous
 62
     1
370
    15
100
AcDbCircle
 10
20.8114604651
 20
284.3323241635
 30
0.0
 40
5.715000000000015
100
AcDbArc
 50
283.4933988216
 51
346.5066011784
  0
LINE
  5
75
330
1F
100
AcDbEntity
  8
0
  6
Continuous
 62
     1
370
    15
100
AcDbLine
 10
23.9864604267
 20
282.9988241377
 30
0.0
 11
26.3687083683
 21
282.9988241377
 31
0.0
  0
LINE
  5
76
330
1F
100
AcDbEntity
  8
0
  6
Continuous
 62
     1
370
    15
100
AcDbLine
 10
23.9864604267
 20
285.6658241892
 30
0.0
 11
23.9864604267
 21
282.9988241377
 31
0.0
  0
LINE
  5
77
330
1F
100
AcDbEntity
  8
0
  6
Continuous
 62
     1
370
    15
100
AcDbLine
 10
23.9864604267
 20
285.6658241892
 30
0.0
 11
26.3687083683
 21
285.6658241892
 31
0.0
  0
ARC
  5
78
330
1F
100
AcDbEntity
  8
0
  6
Continuous
 62
     1
370
    15
100
AcDbCircle
 10
20.8114604651
 20
284.3323241635
 30
0.0
 40
5.714999999999988
100
AcDbArc
 50
13.4933988216
 51
76.5066011784
  0
LINE
  5
79
330
1F
100
AcDbEntity
  8
0
  6
Continuous
 62
     1
370
    15
100
AcDbLine
 10
22.1449604909
 20
289.8895720667
 30
0.0
 11
22.1449604909
 21
287.5073241251
 31
0.0
  0
LINE
  5
7A
330
1F
100
AcDbEntity
  8
0
  6
Continuous
 62
     1
370
    15
100
AcDbLine
 10
19.4779604393
 20
287.5073241251
 30
0.0
 11
22.1449604909
 21
287.5073241251
 31
0.0
  0
LINE
  5
7B
330
1F
100
AcDbEntity
  8
0
  6
Continuous
 62
     1
370
    15
100
AcDbLine
 10
19.4779604393
 20
289.8895720667
 30
0.0
 11
19.4779604393
 21
287.5073241251
 31
0.0
  0
ARC
  5
7C
330
1F
100
AcDbEntity
  8
0
  6
Continuous
 62
     1
370
    15
100
AcDbCircle
 10
20.8114604651
 20
284.3323241635
 30
0.0
 40
5.714999999999992
100
AcDbArc
 50
103.4933988216
 51
166.5066011784
  0
LINE
  5
7D
330
1F
100
AcDbEntity
  8
0
  6
Continuous
 62
     1
370
    15
100
AcDbLine
 10
15.2542125619
 20
285.6658241892
 30
0.0
 11
17.6364605035
 21
285.6658241892
 31
0.0
  0
LINE
  5
7E
330
1F
100
AcDbEntity
  8
0
  6
Continuous
 62
     1
370
    15
100
AcDbLine
 10
17.6364605035
 20
285.6658241892
 30
0.0
 11
17.6364605035
 21
282.9988241377
 31
0.0
  0
LINE
  5
7F
330
1F
100
AcDbEntity
  8
0
  6
Continuous
 62
     1
370
    15
100
AcDbLine
 10
15.2542125619
 20
282.9988241377
 30
0.0
 11
17.6364605035
 21
282.9988241377
 31
0.0
  0
ARC
  5
80
330
1F
100
AcDbEntity
  8
0
  6
Continuous
 62
     1
370
    15
100
AcDbCircle
 10
20.8114604651
 20
284.3323241635
 30
0.0
 40
5.715000000000019
100
AcDbArc
 50
193.4933988216
 51
256.5066011783999
  0
LINE
  5
81
330
1F
100
AcDbEntity
  8
0
  6
Continuous
 62
     1
370
    15
100
AcDbLine
 10
19.4779604393
 20
281.1573242018
 30
0.0
 11
19.4779604393
 21
278.7750762603
 31
0.0
  0
LINE
  5
82
330
1F
100
AcDbEntity
  8
0
  6
Continuous
 62
     1
370
    15
100
AcDbLine
 10
19.4779604393
 20
281.1573242018
 30
0.0
 11
22.1449604909
 21
281.1573242018
 31
0.0
  0
ARC
  5
83
330
1F
100
AcDbEntity
  8
0
  6
Continuous
 62
     5
370
    15
100
AcDbCircle
 10
20.8114604651
 20
284.3323241635
 30
0.0
 40
14.78546059019598
100
AcDbArc
 50
93.81595451179999
 51
94.1840454882
  0
LINE
  5
84
330
1F
100
AcDbEntity
  8
0
  6
Continuous
 62
     5
370
    15
100
AcDbLine
 10
20.5039061151
 20
299.9750341935
 30
0.0
 11
20.0812951847
 21
299.2430509715
 31
0.0
  0
LINE
  5
85
330
1F
100
AcDbEntity
  8
0
  6
Continuous
 62
     5
370
    15
100
AcDbLine
 10
20.844051753
 20
300.133785577
 30
0.0
 11
20.7788691772
 21
300.133785577
 31
0.0
  0
LINE
  5
86
330
1F
100
AcDbEntity
  8
0
  6
Continuous
 62
     5
370
    15
100
AcDbLine
 10
21.5416257455
 20
299.2430509715
 30
0.0
 11
21.1190148151
 21
299.9750341935
 31
0.0
  0
LINE
  5
87
330
1F
100
AcDbEntity
  8
0
  6
Continuous
 62
     5
370
    15
100
AcDbLine
 10
18.3298546075
 20
299.7799975513
 30
0.0
 11
18.0132289137
 21
298.9963212697
 31
0.0
  0
LINE
  5
88
330
1F
100
AcDbEntity
  8
0
  6
Continuous
 62
     5
370
    15
100
AcDbLine
 10
18.6445962358
 20
299.9845411344
 30
0.0
 11
18.5800481307
 21
299.9754700525
 31
0.0
  0
LINE
  5
89
330
1F
100
AcDbEntity
  8
0
  6
Continuous
 62
     5
370
    15
100
AcDbLine
 10
19.4593477248
 20
299.1995600699
 30
0.0
 11
18.9389771735
 21
299.8656047223
 31
0.0
  0
ARC
  5
8A
330
1F
100
AcDbEntity
  8
0
  6
Continuous
 62
     5
370
    15
100
AcDbCircle
 10
18.6242355413
 20
299.6610600828
 30
0.0
 40
0.3175000000000043
100
AcDbArc
 50
97.99999999999999
 51
158.0
  0
ARC
  5
8B
330
1F
100
AcDbEntity
  8
0
  6
Continuous
 62
     5
370
    15
100
AcDbCircle
 10
18.688783768
 20
299.6701317444
 30
0.0
 40
0.3175000000000596
100
AcDbArc
 50
37.99999999999999
 51
97.99999999999999
  0
ARC
  5
8C
330
1F
100
AcDbEntity
  8
0
  6
Continuous
 62
     5
370
    15
100
AcDbCircle
 10
19.7095411606
 20
299.3950328321
 30
0.0
 40
0.3174999999999991
100
AcDbArc
 50
218.0
 51
274.1840454882
  0
ARC
  5
8D
330
1F
100
AcDbEntity
  8
0
  6
Continuous
 62
     5
370
    15
100
AcDbCircle
 10
17.7188480957
 20
299.1152591671
 30
0.0
 40
0.3174999999999839
100
AcDbArc
 50
281.8159545117999
 51
338.0
  0
ARC
  5
8E
330
1F
100
AcDbEntity
  8
0
  6
Continuous
 62
     5
370
    15
100
AcDbCircle
 10
20.8114604651
 20
284.3323241635
 30
0.0
 40
14.785460590196
100
AcDbArc
 50
101.8159545118
 51
102.1840454882
  0
LINE
  5
8F
330
1F
100
AcDbEntity
  8
0
  6
Continuous
 62
     5
370
    15
100
AcDbLine
 10
16.2041047773
 20
299.2842890037
 30
0.0
 11
15.9996273182
 21
298.4641737951
 31
0.0
  0
LINE
  5
90
330
1F
100
AcDbEntity
  8
0
  6
Continuous
 62
     5
370
    15
100
AcDbLine
 10
16.487316247
 20
299.5306461765
 30
0.0
 11
16.4246587268
 21
299.5126800327
 31
0.0
  0
LINE
  5
91
330
1F
100
AcDbEntity
  8
0
  6
Continuous
 62
     5
370
    15
100
AcDbLine
 10
17.4033870175
 20
298.8666960685
 30
0.0
 11
16.7953851818
 21
299.4538362785
 31
0.0
  0
ARC
  5
92
330
1F
100
AcDbEntity
  8
0
  6
Continuous
 62
     5
370
    15
100
AcDbCircle
 10
16.5121737522
 20
299.2074790034
 30
0.0
 40
0.3174999999999988
100
AcDbArc
 50
106.0
 51
166.0
  0
ARC
  5
93
330
1F
100
AcDbEntity
  8
0
  6
Continuous
 62
     5
370
    15
100
AcDbCircle
 10
16.5748312687
 20
299.2254457571
 30
0.0
 40
0.3175000000000057
100
AcDbArc
 50
46.0
 51
106.0
  0
ARC
  5
94
330
1F
100
AcDbEntity
  8
0
  6
Continuous
 62
     5
370
    15
100
AcDbCircle
 10
17.6239410893
 20
299.0950860601
 30
0.0
 40
0.3175000000000188
100
AcDbArc
 50
226.0
 51
282.1840454882
  0
ARC
  5
95
330
1F
100
AcDbEntity
  8
0
  6
Continuous
 62
     5
370
    15
100
AcDbCircle
 10
15.6915582809
 20
298.5409842063
 30
0.0
 40
0.3175000000000223
100
AcDbArc
 50
289.8159545117999
 51
346.0
  0
ARC
  5
96
330
1F
100
AcDbEntity
  8
0
  6
Continuous
 62
     5
370
    15
100
AcDbCircle
 10
20.8114604651
 20
284.3323241635
 30
0.0
 40
14.78546059019598
100
AcDbArc
 50
109.8159545118
 51
110.1840454882
  0
LINE
  5
97
330
1F
100
AcDbEntity
  8
0
  6
Continuous
 62
     5
370
    15
100
AcDbLine
 10
14.1680319979
 20
298.4975579841
 30
0.0
 11
14.0796820819
 21
297.6569657861
 31
0.0
  0
LINE
  5
98
330
1F
100
AcDbEntity
  8
0
  6
Continuous
 62
     5
370
    15
100
AcDbLine
 10
14.4142010435
 20
298.7809324352
 30
0.0
 11
14.354653675
 21
298.7544204755
 31
0.0
  0
LINE
  5
99
330
1F
100
AcDbEntity
  8
0
  6
Continuous
 62
     5
370
    15
100
AcDbLine
 10
15.4137606918
 20
298.2509363158
 30
0.0
 11
14.7299617714
 21
298.7477447553
 31
0.0
  0
ARC
  5
9A
330
1F
100
AcDbEntity
  8
0
  6
Continuous
 62
     5
370
    15
100
AcDbCircle
 10
14.4837926886
 20
298.4643699552
 30
0.0
 40
0.3174999999999932
100
AcDbArc
 50
114.0
 51
174.0
  0
ARC
  5
9B
330
1F
100
AcDbEntity
  8
0
  6
Continuous
 62
     5
370
    15
100
AcDbCircle
 10
14.5433399377
 20
298.4908820986
 30
0.0
 40
0.317500000000051
100
AcDbArc
 50
54.0
 51
114.0
  0
ARC
  5
9C
330
1F
100
AcDbEntity
  8
0
  6
Continuous
 62
     5
370
    15
100
AcDbCircle
 10
15.6003824568
 20
298.5077989203
 30
0.0
 40
0.317499999999957
100
AcDbArc
 50
234.0
 51
290.1840454882
  0
ARC
  5
9D
330
1F
100
AcDbEntity
  8
0
  6
Continuous
 62
     5
370
    15
100
AcDbCircle
 10
13.7639215384
 20
297.6901538399
 30
0.0
 40
0.3175000000000015
100
AcDbArc
 50
297.8159545118
 51
354.0
  0
ARC
  5
9E
330
1F
100
AcDbEntity
  8
0
  6
Continuous
 62
     5
370
    15
100
AcDbCircle
 10
20.8114604651
 20
284.3323241635
 30
0.0
 40
14.78546059019601
100
AcDbArc
 50
117.8159545118
 51
118.1840454882
  0
LINE
  5
9F
330
1F
100
AcDbEntity
  8
0
  6
Continuous
 62
     5
370
    15
100
AcDbLine
 10
12.2612654417
 20
297.4351163669
 30
0.0
 11
12.2907641529
 21
296.5904086544
 31
0.0
  0
LINE
  5
A0
330
1F
100
AcDbEntity
  8
0
  6
Continuous
 62
     5
370
    15
100
AcDbLine
 10
12.4656013399
 20
297.7499937354
 30
0.0
 11
12.4103226884
 21
297.7154519124
 31
0.0
  0
LINE
  5
A1
330
1F
100
AcDbEntity
  8
0
  6
Continuous
 62
     5
370
    15
100
AcDbLine
 10
13.5291945375
 20
297.364266002
 30
0.0
 11
12.7829075976
 21
297.7610736801
 31
0.0
  0
ARC
  5
A2
330
1F
100
AcDbEntity
  8
0
  6
Continuous
 62
     5
370
    15
100
AcDbCircle
 10
12.5785724807
 20
297.4461967108
 30
0.0
 40
0.3175000000000279
100
AcDbArc
 50
122.0
 51
182.0
  0
ARC
  5
A3
330
1F
100
AcDbEntity
  8
0
  6
Continuous
 62
     5
370
    15
100
AcDbCircle
 10
12.6338504428
 20
297.4807382151
 30
0.0
 40
0.3175000000000361
100
AcDbArc
 50
62.0
 51
122.0
  0
ARC
  5
A4
330
1F
100
AcDbEntity
  8
0
  6
Continuous
 62
     5
370
    15
100
AcDbCircle
 10
13.6782515303
 20
297.6446022886
 30
0.0
 40
0.3174999999999834
100
AcDbArc
 50
242.0
 51
298.1840454882
  0
ARC
  5
A5
330
1F
100
AcDbEntity
  8
0
  6
Continuous
 62
     5
370
    15
100
AcDbCircle
 10
11.9734571246
 20
296.5793285132
 30
0.0
 40
0.3174999999999994
100
AcDbArc
 50
305.8159545118
 51
2.0
  0
ARC
  5
A6
330
1F
100
AcDbEntity
  8
0
  6
Continuous
 62
     5
370
    15
100
AcDbCircle
 10
20.8114604651
 20
284.3323241635
 30
0.0
 40
14.78546059019599
100
AcDbArc
 50
125.8159545118
 51
126.1840454882
  0
LINE
  5
A7
330
1F
100
AcDbEntity
  8
0
  6
Continuous
 62
     5
370
    15
100
AcDbLine
 10
10.5209197103
 20
296.1176432384
 30
0.0
 11
10.6676905601
 21
295.2852625115
 31
0.0
  0
LINE
  5
A8
330
1F
100
AcDbEntity
  8
0
  6
Continuous
 62
     5
370
    15
100
AcDbLine
 10
10.679443851
 20
296.4578944905
 30
0.0
 11
10.6295109912
 21
296.4159961505
 31
0.0
  0
LINE
  5
A9
330
1F
100
AcDbEntity
  8
0
  6
Continuous
 62
     5
370
    15
100
AcDbLine
 10
11.7863691597
 20
296.2239453284
 30
0.0
 11
10.9921205043
 21
296.5130278556
 31
0.0
  0
ARC
  5
AA
330
1F
100
AcDbEntity
  8
0
  6
Continuous
 62
     5
370
    15
100
AcDbCircle
 10
10.8335960726
 20
296.172776854
 30
0.0
 40
0.317500000000003
100
AcDbArc
 50
130.0
 51
190.0
  0
ARC
  5
AB
330
1F
100
AcDbEntity
  8
0
  6
Continuous
 62
     5
370
    15
100
AcDbCircle
 10
10.8835288251
 20
296.2146754081
 30
0.0
 40
0.3175000000000118
100
AcDbArc
 50
70.0
 51
130.0
  0
ARC
  5
AC
330
1F
100
AcDbEntity
  8
0
  6
Continuous
 62
     5
370
    15
100
AcDbCircle
 10
11.8949604018
 20
296.5222973058
 30
0.0
 40
0.3175000000000014
100
AcDbArc
 50
250.0
 51
306.1840454882
  0
ARC
  5
AD
330
1F
100
AcDbEntity
  8
0
  6
Continuous
 62
     5
370
    15
100
AcDbCircle
 10
10.3550143927
 20
295.2301291775
 30
0.0
 40
0.3175000000000012
100
AcDbArc
 50
313.8159545117999
 51
10.0
  0
ARC
  5
AE
330
1F
100
AcDbEntity
  8
0
  6
Continuous
 62
     5
370
    15
100
AcDbCircle
 10
20.8114604651
 20
284.3323241635
 30
0.0
 40
14.785460590196
100
AcDbArc
 50
133.8159545118
 51
134.1840454882
  0
LINE
  5
AF
330
1F
100
AcDbEntity
  8
0
  6
Continuous
 62
     5
370
    15
100
AcDbLine
 10
8.9808670058
 20
294.5707834972
 30
0.0
 11
9.2420545592
 21
293.7669291808
 31
0.0
  0
LINE
  5
B0
330
1F
100
AcDbEntity
  8
0
  6
Continuous
 62
     5
370
    15
100
AcDbLine
 10
9.0904948487
 20
294.9297850667
 30
0.0
 11
9.0468791499
 21
294.8813451169
 31
0.0
  0
LINE
  5
B1
330
1F
100
AcDbEntity
  8
0
  6
Continuous
 62
     5
370
    15
100
AcDbLine
 10
10.2192065864
 20
294.8521667807
 30
0.0
 11
9.3924547731
 21
295.0278980373
 31
0.0
  0
ARC
  5
B2
330
1F
100
AcDbEntity
  8
0
  6
Continuous
 62
     5
370
    15
100
AcDbCircle
 10
9.2828274453
 20
294.6688960538
 30
0.0
 40
0.3175000000000673
100
AcDbArc
 50
138.0
 51
198.0
  0
ARC
  5
B3
330
1F
100
AcDbEntity
  8
0
  6
Continuous
 62
     5
370
    15
100
AcDbCircle
 10
9.3264431039
 20
294.7173361502
 30
0.0
 40
0.3175000000000293
100
AcDbArc
 50
77.99999999999999
 51
138.0
  0
ARC
  5
B4
330
1F
100
AcDbEntity
  8
0
  6
Continuous
 62
     5
370
    15
100
AcDbCircle
 10
10.2852188046
 20
295.1627283616
 30
0.0
 40
0.3175000000000227
100
AcDbArc
 50
258.0
 51
314.1840454882
  0
ARC
  5
B5
330
1F
100
AcDbEntity
  8
0
  6
Continuous
 62
     5
370
    15
100
AcDbCircle
 10
8.9400944897
 20
293.6688164633
 30
0.0
 40
0.3175000000000005
100
AcDbArc
 50
321.8159545118
 51
18.0
  0
ARC
  5
B6
330
1F
100
AcDbEntity
  8
0
  6
Continuous
 62
     5
370
    15
100
AcDbCircle
 10
20.8114604651
 20
284.3323241635
 30
0.0
 40
14.78546059019599
100
AcDbArc
 50
141.8159545118
 51
142.1840454882
  0
LINE
  5
B7
330
1F
100
AcDbEntity
  8
0
  6
Continuous
 62
     5
370
    15
100
AcDbLine
 10
7.6710838079
 20
292.8246430768
 30
0.0
 11
8.0416039749
 21
292.0649623214
 31
0.0
  0
LINE
  5
B8
330
1F
100
AcDbEntity
  8
0
  6
Continuous
 62
     5
370
    15
100
AcDbLine
 10
7.7296807616
 20
293.1954081817
 30
0.0
 11
7.6932306587
 21
293.1413691206
 31
0.0
  0
LINE
  5
B9
330
1F
100
AcDbEntity
  8
0
  6
Continuous
 62
     5
370
    15
100
AcDbLine
 10
8.8582108914
 20
293.2756313769
 30
0.0
 11
8.015048243
 21
293.3345906152
 31
0.0
  0
ARC
  5
BA
330
1F
100
AcDbEntity
  8
0
  6
Continuous
 62
     5
370
    15
100
AcDbCircle
 10
7.9564505461
 20
292.9638256396
 30
0.0
 40
0.3175000000000102
100
AcDbArc
 50
146.0
 51
206.0
  0
ARC
  5
BB
330
1F
100
AcDbEntity
  8
0
  6
Continuous
 62
     5
370
    15
100
AcDbCircle
 10
7.9929001817
 20
293.0178644467
 30
0.0
 40
0.3175000000000192
100
AcDbArc
 50
86.0
 51
146.0
  0
ARC
  5
BC
330
1F
100
AcDbEntity
  8
0
  6
Continuous
 62
     5
370
    15
100
AcDbCircle
 10
8.880358528
 20
293.5923579191
 30
0.0
 40
0.3174999999999967
100
AcDbArc
 50
266.0
 51
322.1840454882
  0
ARC
  5
BD
330
1F
100
AcDbEntity
  8
0
  6
Continuous
 62
     5
370
    15
100
AcDbCircle
 10
7.7562372218
 20
291.9257795466
 30
0.0
 40
0.3174999999999965
100
AcDbArc
 50
329.8159545118
 51
26.0
  0
ARC
  5
BE
330
1F
100
AcDbEntity
  8
0
  6
Continuous
 62
     5
370
    15
100
AcDbCircle
 10
20.8114604651
 20
284.3323241635
 30
0.0
 40
14.78546059019601
100
AcDbArc
 50
149.8159545118
 51
150.1840454882
  0
LINE
  5
BF
330
1F
100
AcDbEntity
  8
0
  6
Continuous
 62
     5
370
    15
100
AcDbLine
 10
6.617062278
 20
290.9132091975
 30
0.0
 11
7.0897047593
 21
290.2124886116
 31
0.0
  0
LINE
  5
C0
330
1F
100
AcDbEntity
  8
0
  6
Continuous
 62
     5
370
    15
100
AcDbLine
 10
6.6234884038
 20
291.2885214849
 30
0.0
 11
6.5949144959
 21
291.229935707
 31
0.0
  0
LINE
  5
C1
330
1F
100
AcDbEntity
  8
0
  6
Continuous
 62
     5
370
    15
100
AcDbLine
 10
7.7298716827
 20
291.5250247991
 30
0.0
 11
6.886708103
 21
291.4660650952
 31
0.0
  0
ARC
  5
C2
330
1F
100
AcDbEntity
  8
0
  6
Continuous
 62
     5
370
    15
100
AcDbCircle
 10
6.8802817925
 20
291.0907528672
 30
0.0
 40
0.3175000000000111
100
AcDbArc
 50
154.0
 51
214.0
  0
ARC
  5
C3
330
1F
100
AcDbEntity
  8
0
  6
Continuous
 62
     5
370
    15
100
AcDbCircle
 10
6.9088559545
 20
291.1493385812
 30
0.0
 40
0.3175000000000024
100
AcDbArc
 50
94.0
 51
154.0
  0
ARC
  5
C4
330
1F
100
AcDbEntity
  8
0
  6
Continuous
 62
     5
370
    15
100
AcDbCircle
 10
7.7077235791
 20
291.8417514526
 30
0.0
 40
0.3175000000000024
100
AcDbArc
 50
274.0
 51
330.1840454882
  0
ARC
  5
C5
330
1F
100
AcDbEntity
  8
0
  6
Continuous
 62
     5
370
    15
100
AcDbCircle
 10
6.8264850243
 20
290.0349446583
 30
0.0
 40
0.3174999999999852
100
AcDbArc
 50
337.8159545118
 51
34.00000000000001
  0
ARC
  5
C6
330
1F
100
AcDbEntity
  8
0
  6
Continuous
 62
     5
370
    15
100
AcDbCircle
 10
20.8114604651
 20
284.3323241635
 30
0.0
 40
14.78546059019601
100
AcDbArc
 50
157.8159545118
 51
158.1840454882
  0
LINE
  5
C7
330
1F
100
AcDbEntity
  8
0
  6
Continuous
 62
     5
370
    15
100
AcDbLine
 10
5.8393194526
 20
288.8736858679
 30
0.0
 11
6.4048827811
 21
288.2455637394
 31
0.0
  0
LINE
  5
C8
330
1F
100
AcDbEntity
  8
0
  6
Continuous
 62
     5
370
    15
100
AcDbLine
 10
5.7934499531
 20
289.2462400435
 30
0.0
 11
5.7733073085
 21
289.1842479533
 31
0.0
  0
LINE
  5
C9
330
1F
100
AcDbEntity
  8
0
  6
Continuous
 62
     5
370
    15
100
AcDbLine
 10
6.8561495467
 20
289.6344208805
 30
0.0
 11
6.0293977334
 21
289.4586891583
 31
0.0
  0
ARC
  5
CA
330
1F
100
AcDbEntity
  8
0
  6
Continuous
 62
     5
370
    15
100
AcDbCircle
 10
6.0752675854
 20
289.0861349678
 30
0.0
 40
0.3175000000000039
100
AcDbArc
 50
162.0
 51
222.0
  0
ARC
  5
CB
330
1F
100
AcDbEntity
  8
0
  6
Continuous
 62
     5
370
    15
100
AcDbCircle
 10
6.0954101101
 20
289.1481272843
 30
0.0
 40
0.3175000000000031
100
AcDbArc
 50
102.0
 51
162.0
  0
ARC
  5
CC
330
1F
100
AcDbEntity
  8
0
  6
Continuous
 62
     5
370
    15
100
AcDbCircle
 10
6.7901379635
 20
289.9449825259
 30
0.0
 40
0.3174999999999927
100
AcDbArc
 50
281.9999999999999
 51
338.1840454882
  0
ARC
  5
CD
330
1F
100
AcDbEntity
  8
0
  6
Continuous
 62
     5
370
    15
100
AcDbCircle
 10
6.1689344661
 20
288.0331147487
 30
0.0
 40
0.3175000000000253
100
AcDbArc
 50
345.8159545118
 51
42.0
  0
ARC
  5
CE
330
1F
100
AcDbEntity
  8
0
  6
Continuous
 62
     5
370
    15
100
AcDbCircle
 10
20.8114604651
 20
284.3323241635
 30
0.0
 40
14.785460590196
100
AcDbArc
 50
165.8159545118
 51
166.1840454882
  0
LINE
  5
CF
330
1F
100
AcDbEntity
  8
0
  6
Continuous
 62
     5
370
    15
100
AcDbLine
 10
5.352991186
 20
286.74577048
 30
0.0
 11
6.0004689916
 21
286.2024722802
 31
0.0
  0
LINE
  5
D0
330
1F
100
AcDbEntity
  8
0
  6
Continuous
 62
     5
370
    15
100
AcDbLine
 10
5.2557191997
 20
287.1083152661
 30
0.0
 11
5.2443999051
 21
287.0441229264
 31
0.0
  0
LINE
  5
D1
330
1F
100
AcDbEntity
  8
0
  6
Continuous
 62
     5
370
    15
100
AcDbLine
 10
6.2540532275
 20
287.6406171074
 30
0.0
 11
5.4598036408
 21
287.3515343474
 31
0.0
  0
ARC
  5
D2
330
1F
100
AcDbEntity
  8
0
  6
Continuous
 62
     5
370
    15
100
AcDbCircle
 10
5.5570766105
 20
286.9889895484
 30
0.0
 40
0.317500000000009
100
AcDbArc
 50
170.0
 51
230.0
  0
ARC
  5
D3
330
1F
100
AcDbEntity
  8
0
  6
Continuous
 62
     5
370
    15
100
AcDbCircle
 10
5.5683954466
 20
287.0531818576
 30
0.0
 40
0.3175000000000039
100
AcDbArc
 50
110.0
 51
170.0
  0
ARC
  5
D4
330
1F
100
AcDbEntity
  8
0
  6
Continuous
 62
     5
370
    15
100
AcDbCircle
 10
6.1454614413
 20
287.9389695884
 30
0.0
 40
0.3175000000000027
100
AcDbArc
 50
289.9999999999999
 51
346.1840454882
  0
ARC
  5
D5
330
1F
100
AcDbEntity
  8
0
  6
Continuous
 62
     5
370
    15
100
AcDbCircle
 10
5.7963840208
 20
285.95925316
 30
0.0
 40
0.3175000000000096
100
AcDbArc
 50
353.8159545118
 51
50.0
  0
ARC
  5
D6
330
1F
100
AcDbEntity
  8
0
  6
Continuous
 62
     5
370
    15
100
AcDbCircle
 10
20.8114604651
 20
284.3323241635
 30
0.0
 40
14.78546059019601
100
AcDbArc
 50
173.8159545118
 51
174.1840454882
  0
LINE
  5
D7
330
1F
100
AcDbEntity
  8
0
  6
Continuous
 62
     5
370
    15
100
AcDbLine
 10
5.1675453036
 20
284.5708798944
 30
0.0
 11
5.8843339979
 21
284.1229805147
 31
0.0
  0
LINE
  5
D8
330
1F
100
AcDbEntity
  8
0
  6
Continuous
 62
     5
370
    15
100
AcDbLine
 10
5.0207632779
 20
284.9163586455
 30
0.0
 11
5.0184889882
 21
284.8512157746
 31
0.0
  0
LINE
  5
D9
330
1F
100
AcDbEntity
  8
0
  6
Continuous
 62
     5
370
    15
100
AcDbLine
 10
5.9352987631
 20
285.5824215751
 30
0.0
 11
5.189012289
 21
285.1856138971
 31
0.0
  0
ARC
  5
DA
330
1F
100
AcDbEntity
  8
0
  6
Continuous
 62
     5
370
    15
100
AcDbCircle
 10
5.3357948657
 20
284.8401351592
 30
0.0
 40
0.3175000000000012
100
AcDbArc
 50
178.0
 51
238.0
  0
ARC
  5
DB
330
1F
100
AcDbEntity
  8
0
  6
Continuous
 62
     5
370
    15
100
AcDbCircle
 10
5.338069705
 20
284.9052780308
 30
0.0
 40
0.3175000000000331
100
AcDbArc
 50
118.0
 51
178.0
  0
ARC
  5
DC
330
1F
100
AcDbEntity
  8
0
  6
Continuous
 62
     5
370
    15
100
AcDbCircle
 10
5.7862419077
 20
285.8627574002
 30
0.0
 40
0.3175000000000331
100
AcDbArc
 50
298.0
 51
354.1840454882
  0
ARC
  5
DD
330
1F
100
AcDbEntity
  8
0
  6
Continuous
 62
     5
370
    15
100
AcDbCircle
 10
5.7160849591
 20
283.8537252489
 30
0.0
 40
0.3174999999999965
100
AcDbArc
 50
1.8159545118
 51
58.00000000000001
  0
ARC
  5
DE
330
1F
100
AcDbEntity
  8
0
  6
Continuous
 62
     5
370
    15
100
AcDbCircle
 10
20.8114604651
 20
284.3323241635
 30
0.0
 40
14.78546059019601
100
AcDbArc
 50
181.8159545118
 51
182.1840454882
  0
LINE
  5
DF
330
1F
100
AcDbEntity
  8
0
  6
Continuous
 62
     5
370
    15
100
AcDbLine
 10
5.2865906804
 20
282.391346171
 30
0.0
 11
6.0587390511
 21
282.0475633437
 31
0.0
  0
LINE
  5
E0
330
1F
100
AcDbEntity
  8
0
  6
Continuous
 62
     5
370
    15
100
AcDbLine
 10
5.0931549817
 20
282.7130345343
 30
0.0
 11
5.0999685376
 21
282.6482090116
 31
0.0
  0
LINE
  5
E1
330
1F
100
AcDbEntity
  8
0
  6
Continuous
 62
     5
370
    15
100
AcDbLine
 10
5.9060934185
 20
283.4998941928
 30
0.0
 11
5.2222940325
 21
283.0030851713
 31
0.0
  0
ARC
  5
E2
330
1F
100
AcDbEntity
  8
0
  6
Continuous
 62
     5
370
    15
100
AcDbCircle
 10
5.4157293486
 20
282.6813968066
 30
0.0
 40
0.3175000000000033
100
AcDbArc
 50
186.0
 51
246.0
  0
ARC
  5
E3
330
1F
100
AcDbEntity
  8
0
  6
Continuous
 62
     5
370
    15
100
AcDbCircle
 10
5.4089159137
 20
282.7462223087
 30
0.0
 40
0.3175000000000484
100
AcDbArc
 50
126.0
 51
186.0
  0
ARC
  5
E4
330
1F
100
AcDbEntity
  8
0
  6
Continuous
 62
     5
370
    15
100
AcDbCircle
 10
5.7194711625
 20
283.7567570699
 30
0.0
 40
0.3175000000000035
100
AcDbArc
 50
306.0
 51
2.1840454882
  0
ARC
  5
E5
330
1F
100
AcDbEntity
  8
0
  6
Continuous
 62
     5
370
    15
100
AcDbCircle
 10
5.9296002109
 20
281.7575127213
 30
0.0
 40
0.3175000000000336
100
AcDbArc
 50
9.8159545118
 51
66.0
  0
ARC
  5
E6
330
1F
100
AcDbEntity
  8
0
  6
Continuous
 62
     5
370
    15
100
AcDbCircle
 10
20.8114604651
 20
284.3323241635
 30
0.0
 40
14.78546059019602
100
AcDbArc
 50
189.8159545118
 51
190.1840454882
  0
LINE
  5
E7
330
1F
100
AcDbEntity
  8
0
  6
Continuous
 62
     5
370
    15
100
AcDbLine
 10
5.7078092545
 20
280.2495913295
 30
0.0
 11
6.5202885493
 21
280.0166163309
 31
0.0
  0
LINE
  5
E8
330
1F
100
AcDbEntity
  8
0
  6
Continuous
 62
     5
370
    15
100
AcDbLine
 10
5.4714861511
 20
280.5412280089
 30
0.0
 11
5.487255305
 21
280.47798166
 31
0.0
  0
LINE
  5
E9
330
1F
100
AcDbEntity
  8
0
  6
Continuous
 62
     5
370
    15
100
AcDbLine
 10
6.1670025065
 20
281.4335691458
 30
0.0
 11
5.5590006708
 21
280.846428703
 31
0.0
  0
ARC
  5
EA
330
1F
100
AcDbEntity
  8
0
  6
Continuous
 62
     5
370
    15
100
AcDbCircle
 10
5.7953242252
 20
280.5547918771
 30
0.0
 40
0.3175000000000059
100
AcDbArc
 50
194.0
 51
254.0
  0
ARC
  5
EB
330
1F
100
AcDbEntity
  8
0
  6
Continuous
 62
     5
370
    15
100
AcDbCircle
 10
5.7795551321
 20
280.618038255
 30
0.0
 40
0.3174999999999962
100
AcDbArc
 50
134.0
 51
194.0
  0
ARC
  5
EC
330
1F
100
AcDbEntity
  8
0
  6
Continuous
 62
     5
370
    15
100
AcDbCircle
 10
5.9464488222
 20
281.6619594984
 30
0.0
 40
0.3174999999999982
100
AcDbArc
 50
313.9999999999999
 51
10.1840454882
  0
ARC
  5
ED
330
1F
100
AcDbEntity
  8
0
  6
Continuous
 62
     5
370
    15
100
AcDbCircle
 10
6.4327739447
 20
279.7114159696
 30
0.0
 40
0.3174999999999853
100
AcDbArc
 50
17.8159545118
 51
74.0
  0
ARC
  5
EE
330
1F
100
AcDbEntity
  8
0
  6
Continuous
 62
     5
370
    15
100
AcDbCircle
 10
20.8114604651
 20
284.3323241635
 30
0.0
 40
14.78546059019603
100
AcDbArc
 50
197.8159545118
 51
198.1840454882
  0
LINE
  5
EF
330
1F
100
AcDbEntity
  8
0
  6
Continuous
 62
     5
370
    15
100
AcDbLine
 10
6.4230035245
 20
278.1873022853
 30
0.0
 11
7.2599998861
 21
278.0696701905
 31
0.0
  0
LINE
  5
F0
330
1F
100
AcDbEntity
  8
0
  6
Continuous
 62
     5
370
    15
100
AcDbLine
 10
6.1483928188
 20
278.4432111023
 30
0.0
 11
6.1728102341
 21
278.3827747865
 31
0.0
  0
LINE
  5
F1
330
1F
100
AcDbEntity
  8
0
  6
Continuous
 62
     5
370
    15
100
AcDbLine
 10
6.712950319
 20
279.4236651337
 30
0.0
 11
6.1925794183
 21
278.7576209469
 31
0.0
  0
ARC
  5
F2
330
1F
100
AcDbEntity
  8
0
  6
Continuous
 62
     5
370
    15
100
AcDbCircle
 10
6.4671911131
 20
278.5017123167
 30
0.0
 40
0.3174999999999806
100
AcDbArc
 50
202.0
 51
262.0
  0
ARC
  5
F3
330
1F
100
AcDbEntity
  8
0
  6
Continuous
 62
     5
370
    15
100
AcDbCircle
 10
6.4427732892
 20
278.5621485516
 30
0.0
 40
0.3175000000000012
100
AcDbArc
 50
142.0
 51
202.0
  0
ARC
  5
F4
330
1F
100
AcDbEntity
  8
0
  6
Continuous
 62
     5
370
    15
100
AcDbCircle
 10
6.4627570248
 20
279.6191375376
 30
0.0
 40
0.3175000000000039
100
AcDbArc
 50
322.0
 51
18.1840454882
  0
ARC
  5
F5
330
1F
100
AcDbEntity
  8
0
  6
Continuous
 62
     5
370
    15
100
AcDbCircle
 10
7.2158124561
 20
277.7552599398
 30
0.0
 40
0.3175000000000034
100
AcDbArc
 50
25.8159545118
 51
81.99999999999999
  0
ARC
  5
F6
330
1F
100
AcDbEntity
  8
0
  6
Continuous
 62
     5
370
    15
100
AcDbCircle
 10
20.8114604651
 20
284.3323241635
 30
0.0
 40
14.78546059019603
100
AcDbArc
 50
205.8159545118
 51
206.1840454882
  0
LINE
  5
F7
330
1F
100
AcDbEntity
  8
0
  6
Continuous
 62
     5
370
    15
100
AcDbLine
 10
7.4182530119
 20
276.244619274
 30
0.0
 11
8.2634748145
 21
276.244619274
 31
0.0
  0
LINE
  5
F8
330
1F
100
AcDbEntity
  8
0
  6
Continuous
 62
     5
370
    15
100
AcDbLine
 10
7.1106986328
 20
276.45981905
 30
0.0
 11
7.1432902663
 21
276.4033687948
 31
0.0
  0
LINE
  5
F9
330
1F
100
AcDbEntity
  8
0
  6
Continuous
 62
     5
370
    15
100
AcDbLine
 10
7.5333095341
 20
277.5093022449
 30
0.0
 11
7.1106986328
 21
276.7773185572
 31
0.0
  0
ARC
  5
FA
330
1F
100
AcDbEntity
  8
0
  6
Continuous
 62
     5
370
    15
100
AcDbCircle
 10
7.4182528876
 20
276.5621189837
 30
0.0
 40
0.3174999999999982
100
AcDbArc
 50
210.0
 51
270.0
  0
ARC
  5
FB
330
1F
100
AcDbEntity
  8
0
  6
Continuous
 62
     5
370
    15
100
AcDbCircle
 10
7.385661598
 20
276.618568753
 30
0.0
 40
0.3175000000000266
100
AcDbArc
 50
150.0
 51
210.0
  0
ARC
  5
FC
330
1F
100
AcDbEntity
  8
0
  6
Continuous
 62
     5
370
    15
100
AcDbCircle
 10
7.2583464184
 20
277.6680523933
 30
0.0
 40
0.317500000000025
100
AcDbArc
 50
330.0
 51
26.1840454882
  0
ARC
  5
FD
330
1F
100
AcDbEntity
  8
0
  6
Continuous
 62
     5
370
    15
100
AcDbCircle
 10
8.2634747911
 20
275.9271189837
 30
0.0
 40
0.3174999999999955
100
AcDbArc
 50
33.8159545118
 51
90.0
  0
ARC
  5
FE
330
1F
100
AcDbEntity
  8
0
  6
Continuous
 62
     5
370
    15
100
AcDbCircle
 10
20.8114604651
 20
284.3323241635
 30
0.0
 40
14.78546059019605
100
AcDbArc
 50
213.8159545118
 51
214.1840454882
  0
LINE
  5
FF
330
1F
100
AcDbEntity
  8
0
  6
Continuous
 62
     5
370
    15
100
AcDbLine
 10
8.674185276
 20
274.4593539922
 30
0.0
 11
9.5111816376
 21
274.5769856213
 31
0.0
  0
LINE
  5
100
330
1F
100
AcDbEntity
  8
0
  6
Continuous
 62
     5
370
    15
100
AcDbLine
 10
8.3396746962
 20
274.6296556382
 30
0.0
 11
8.3798044547
 21
274.5782913355
 31
0.0
  0
LINE
  5
101
330
1F
100
AcDbEntity
  8
0
  6
Continuous
 62
     5
370
    15
100
AcDbLine
 10
8.6121126264
 20
275.7277417643
 30
0.0
 11
8.2954871654
 21
274.9440664141
 31
0.0
  0
ARC
  5
102
330
1F
100
AcDbEntity
  8
0
  6
Continuous
 62
     5
370
    15
100
AcDbCircle
 10
8.629998213
 20
274.773763856
 30
0.0
 40
0.3175000000000048
100
AcDbArc
 50
218.0
 51
278.0
  0
ARC
  5
103
330
1F
100
AcDbEntity
  8
0
  6
Continuous
 62
     5
370
    15
100
AcDbCircle
 10
8.5898678102
 20
274.8251284292
 30
0.0
 40
0.3175000000000019
100
AcDbArc
 50
158.0
 51
218.0
  0
ARC
  5
104
330
1F
100
AcDbEntity
  8
0
  6
Continuous
 62
     5
370
    15
100
AcDbCircle
 10
8.3177317605
 20
275.8466797185
 30
0.0
 40
0.3175000000000004
100
AcDbArc
 50
338.0
 51
34.1840454882
  0
ARC
  5
105
330
1F
100
AcDbEntity
  8
0
  6
Continuous
 62
     5
370
    15
100
AcDbCircle
 10
9.5553693942
 20
274.2625757857
 30
0.0
 40
0.3175000000000213
100
AcDbArc
 50
41.8159545118
 51
97.99999999999999
  0
ARC
  5
106
330
1F
100
AcDbEntity
  8
0
  6
Continuous
 62
     5
370
    15
100
AcDbCircle
 10
20.8114604651
 20
284.3323241635
 30
0.0
 40
14.78546059019604
100
AcDbArc
 50
221.8159545118
 51
222.1840454882
  0
LINE
  5
107
330
1F
100
AcDbEntity
  8
0
  6
Continuous
 62
     5
370
    15
100
AcDbLine
 10
10.1663568243
 20
272.8662550165
 30
0.0
 11
10.9788361191
 21
273.0992290838
 31
0.0
  0
LINE
  5
108
330
1F
100
AcDbEntity
  8
0
  6
Continuous
 62
     5
370
    15
100
AcDbLine
 10
9.8113990574
 20
272.9883448867
 30
0.0
 11
9.8582874238
 21
272.9430649145
 31
0.0
  0
LINE
  5
109
330
1F
100
AcDbEntity
  8
0
  6
Continuous
 62
     5
370
    15
100
AcDbLine
 10
9.9283619969
 20
274.113660091
 30
0.0
 11
9.7238845377
 21
273.2935448824
 31
0.0
  0
ARC
  5
10A
330
1F
100
AcDbEntity
  8
0
  6
Continuous
 62
     5
370
    15
100
AcDbCircle
 10
10.078841845
 20
273.171455232
 30
0.0
 40
0.3175000000000077
100
AcDbArc
 50
226.0
 51
286.0
  0
ARC
  5
10B
330
1F
100
AcDbEntity
  8
0
  6
Continuous
 62
     5
370
    15
100
AcDbCircle
 10
10.0319534216
 20
273.2167348561
 30
0.0
 40
0.3175000000000139
100
AcDbArc
 50
166.0
 51
226.0
  0
ARC
  5
10C
330
1F
100
AcDbEntity
  8
0
  6
Continuous
 62
     5
370
    15
100
AcDbCircle
 10
9.6202933205
 20
274.1904704606
 30
0.0
 40
0.3174999999999964
100
AcDbArc
 50
346.0
 51
42.18404548820001
  0
ARC
  5
10D
330
1F
100
AcDbEntity
  8
0
  6
Continuous
 62
     5
370
    15
100
AcDbCircle
 10
11.0663510064
 20
272.7940287856
 30
0.0
 40
0.3175000000000109
100
AcDbArc
 50
49.8159545118
 51
106.0
  0
ARC
  5
10E
330
1F
100
AcDbEntity
  8
0
  6
Continuous
 62
     5
370
    15
100
AcDbCircle
 10
20.8114604651
 20
284.3323241635
 30
0.0
 40
14.78546059019603
100
AcDbArc
 50
229.8159545118
 51
230.1840454882
  0
LINE
  5
10F
330
1F
100
AcDbEntity
  8
0
  6
Continuous
 62
     5
370
    15
100
AcDbLine
 10
11.8657224997
 20
271.4963298006
 30
0.0
 11
12.6378708705
 21
271.8401126279
 31
0.0
  0
LINE
  5
110
330
1F
100
AcDbEntity
  8
0
  6
Continuous
 62
     5
370
    15
100
AcDbLine
 10
11.4972279593
 20
271.5678302286
 30
0.0
 11
11.5499622374
 21
271.5295174806
 31
0.0
  0
LINE
  5
111
330
1F
100
AcDbEntity
  8
0
  6
Continuous
 62
     5
370
    15
100
AcDbLine
 10
11.4564388245
 20
272.698472598
 30
0.0
 11
11.3680889084
 21
271.8578813313
 31
0.0
  0
ARC
  5
112
330
1F
100
AcDbEntity
  8
0
  6
Continuous
 62
     5
370
    15
100
AcDbCircle
 10
11.7365836902
 20
271.7863802264
 30
0.0
 40
0.3175000000000029
100
AcDbArc
 50
234.0
 51
294.0000000000001
  0
ARC
  5
113
330
1F
100
AcDbEntity
  8
0
  6
Continuous
 62
     5
370
    15
100
AcDbCircle
 10
11.683849876
 20
271.8246935851
 30
0.0
 40
0.3175000000000489
100
AcDbArc
 50
174.0
 51
234.0
  0
ARC
  5
114
330
1F
100
AcDbEntity
  8
0
  6
Continuous
 62
     5
370
    15
100
AcDbCircle
 10
11.1406782192
 20
272.7316608488
 30
0.0
 40
0.3175000000000033
100
AcDbArc
 50
354.0
 51
50.18404548820001
  0
ARC
  5
115
330
1F
100
AcDbEntity
  8
0
  6
Continuous
 62
     5
370
    15
100
AcDbCircle
 10
12.7670100893
 20
271.5500615805
 30
0.0
 40
0.3174999999999905
100
AcDbArc
 50
57.8159545118
 51
114.0
  0
ARC
  5
116
330
1F
100
AcDbEntity
  8
0
  6
Continuous
 62
     5
370
    15
100
AcDbCircle
 10
20.8114604651
 20
284.3323241635
 30
0.0
 40
14.78546059019604
100
AcDbArc
 50
237.8159545118
 51
238.1840454882
  0
LINE
  5
117
330
1F
100
AcDbEntity
  8
0
  6
Continuous
 62
     5
370
    15
100
AcDbLine
 10
13.7392068467
 20
270.37624211
 30
0.0
 11
14.4559960067
 21
270.8241421445
 31
0.0
  0
LINE
  5
118
330
1F
100
AcDbEntity
  8
0
  6
Continuous
 62
     5
370
    15
100
AcDbLine
 10
13.3643476478
 20
270.3957635625
 30
0.0
 11
13.4219005889
 21
270.3651621653
 31
0.0
  0
LINE
  5
119
330
1F
100
AcDbEntity
  8
0
  6
Continuous
 62
     5
370
    15
100
AcDbLine
 10
13.1666003912
 20
271.5097259445
 30
0.0
 11
13.1960981711
 21
270.665018232
 31
0.0
  0
ARC
  5
11A
330
1F
100
AcDbEntity
  8
0
  6
Continuous
 62
     5
370
    15
100
AcDbCircle
 10
13.5709576894
 20
270.6454977488
 30
0.0
 40
0.3174999999999834
100
AcDbArc
 50
242.0
 51
302.0
  0
ARC
  5
11B
330
1F
100
AcDbEntity
  8
0
  6
Continuous
 62
     5
370
    15
100
AcDbCircle
 10
13.5134048881
 20
270.676099116
 30
0.0
 40
0.3175000000000012
100
AcDbArc
 50
182.0
 51
242.0
  0
ARC
  5
11C
330
1F
100
AcDbEntity
  8
0
  6
Continuous
 62
     5
370
    15
100
AcDbCircle
 10
12.8492938939
 20
271.4986449528
 30
0.0
 40
0.3174999999999994
100
AcDbArc
 50
2.0
 51
58.1840454882
  0
ARC
  5
11D
330
1F
100
AcDbEntity
  8
0
  6
Continuous
 62
     5
370
    15
100
AcDbCircle
 10
14.6242452483
 20
270.554886577
 30
0.0
 40
0.3175000000000279
100
AcDbArc
 50
65.81595451179999
 51
122.0
  0
ARC
  5
11E
330
1F
100
AcDbEntity
  8
0
  6
Continuous
 62
     5
370
    15
100
AcDbCircle
 10
20.8114604651
 20
284.3323241635
 30
0.0
 40
14.78546059019604
100
AcDbArc
 50
245.8159545118
 51
246.1840454882
  0
LINE
  5
11F
330
1F
100
AcDbEntity
  8
0
  6
Continuous
 62
     5
370
    15
100
AcDbLine
 10
15.7503448612
 20
269.527794206
 30
0.0
 11
16.3978226668
 21
270.0710924058
 31
0.0
  0
LINE
  5
120
330
1F
100
AcDbEntity
  8
0
  6
Continuous
 62
     5
370
    15
100
AcDbLine
 10
15.3764169849
 20
269.4949548407
 30
0.0
 11
15.4376686736
 21
269.4726617722
 31
0.0
  0
LINE
  5
121
330
1F
100
AcDbEntity
  8
0
  6
Continuous
 62
     5
370
    15
100
AcDbLine
 10
15.0255607627
 20
270.5705551146
 30
0.0
 11
15.1723316125
 21
269.7381743877
 31
0.0
  0
ARC
  5
122
330
1F
100
AcDbEntity
  8
0
  6
Continuous
 62
     5
370
    15
100
AcDbCircle
 10
15.5462598391
 20
269.7710137788
 30
0.0
 40
0.3175000000000141
100
AcDbArc
 50
250.0
 51
310.0
  0
ARC
  5
123
330
1F
100
AcDbEntity
  8
0
  6
Continuous
 62
     5
370
    15
100
AcDbCircle
 10
15.4850082505
 20
269.7933075338
 30
0.0
 40
0.3174999999999966
100
AcDbArc
 50
190.0
 51
250.0
  0
ARC
  5
124
330
1F
100
AcDbEntity
  8
0
  6
Continuous
 62
     5
370
    15
100
AcDbCircle
 10
14.7128840841
 20
270.5154220246
 30
0.0
 40
0.3175000000000369
100
AcDbArc
 50
10.0
 51
66.1840454882
  0
ARC
  5
125
330
1F
100
AcDbEntity
  8
0
  6
Continuous
 62
     5
370
    15
100
AcDbCircle
 10
16.6019075136
 20
269.8278737244
 30
0.0
 40
0.3175000000000129
100
AcDbArc
 50
73.8159545118
 51
130.0
  0
ARC
  5
126
330
1F
100
AcDbEntity
  8
0
  6
Continuous
 62
     5
370
    15
100
AcDbCircle
 10
20.8114604651
 20
284.3323241635
 30
0.0
 40
14.78546059019603
100
AcDbArc
 50
253.8159545118
 51
254.1840454882
  0
LINE
  5
127
330
1F
100
AcDbEntity
  8
0
  6
Continuous
 62
     5
370
    15
100
AcDbLine
 10
17.8599916584
 20
268.9675003005
 30
0.0
 11
18.4255554526
 21
269.5956224291
 31
0.0
  0
LINE
  5
128
330
1F
100
AcDbEntity
  8
0
  6
Continuous
 62
     5
370
    15
100
AcDbLine
 10
17.4942729249
 20
268.8829399361
 30
0.0
 11
17.5580312683
 21
268.86938733
 31
0.0
  0
LINE
  5
129
330
1F
100
AcDbEntity
  8
0
  6
Continuous
 62
     5
370
    15
100
AcDbLine
 10
16.9971366598
 20
269.8992419703
 30
0.0
 11
17.2583244461
 21
269.0953885852
 31
0.0
  0
ARC
  5
12A
330
1F
100
AcDbEntity
  8
0
  6
Continuous
 62
     5
370
    15
100
AcDbCircle
 10
17.6240431299
 20
269.1799491522
 30
0.0
 40
0.3174999999999952
100
AcDbArc
 50
258.0
 51
318.0000000000001
  0
ARC
  5
12B
330
1F
100
AcDbEntity
  8
0
  6
Continuous
 62
     5
370
    15
100
AcDbCircle
 10
17.5602849466
 20
269.1935013724
 30
0.0
 40
0.3175000000000022
100
AcDbArc
 50
198.0
 51
258.0
  0
ARC
  5
12C
330
1F
100
AcDbEntity
  8
0
  6
Continuous
 62
     5
370
    15
100
AcDbCircle
 10
16.6951761265
 20
269.8011293801
 30
0.0
 40
0.3175000000000022
100
AcDbArc
 50
18.0
 51
74.1840454882
  0
ARC
  5
12D
330
1F
100
AcDbEntity
  8
0
  6
Continuous
 62
     5
370
    15
100
AcDbCircle
 10
18.6615039389
 20
269.3831735011
 30
0.0
 40
0.3174999999999926
100
AcDbArc
 50
81.8159545118
 51
138.0
  0
ARC
  5
12E
330
1F
100
AcDbEntity
  8
0
  6
Continuous
 62
     5
370
    15
100
AcDbCircle
 10
20.8114604651
 20
284.3323241635
 30
0.0
 40
14.78546059019606
100
AcDbArc
 50
261.8159545118
 51
262.1840454882
  0
LINE
  5
12F
330
1F
100
AcDbEntity
  8
0
  6
Continuous
 62
     5
370
    15
100
AcDbLine
 10
20.0270852842
 20
268.7062643184
 30
0.0
 11
20.4997273871
 21
269.4069849042
 31
0.0
  0
LINE
  5
130
330
1F
100
AcDbEntity
  8
0
  6
Continuous
 62
     5
370
    15
100
AcDbLine
 10
19.6766944322
 20
268.5716286017
 30
0.0
 11
19.7417182102
 21
268.5670818849
 31
0.0
  0
LINE
  5
131
330
1F
100
AcDbEntity
  8
0
  6
Continuous
 62
     5
370
    15
100
AcDbLine
 10
19.0429541002
 20
269.5088529675
 30
0.0
 11
19.4134749658
 21
268.749172212
 31
0.0
  0
ARC
  5
132
330
1F
100
AcDbEntity
  8
0
  6
Continuous
 62
     5
370
    15
100
AcDbCircle
 10
19.7638658735
 20
268.8838082696
 30
0.0
 40
0.3175000000000023
100
AcDbArc
 50
266.0
 51
325.9999999999999
  0
ARC
  5
133
330
1F
100
AcDbEntity
  8
0
  6
Continuous
 62
     5
370
    15
100
AcDbCircle
 10
19.698842076
 20
268.8883551765
 30
0.0
 40
0.3175000000000023
100
AcDbArc
 50
206.0
 51
266.0
  0
ARC
  5
134
330
1F
100
AcDbEntity
  8
0
  6
Continuous
 62
     5
370
    15
100
AcDbCircle
 10
18.7575869614
 20
269.369669913
 30
0.0
 40
0.3175000000000077
100
AcDbArc
 50
26.0
 51
82.18404548819998
  0
ARC
  5
135
330
1F
100
AcDbEntity
  8
0
  6
Continuous
 62
     5
370
    15
100
AcDbCircle
 10
20.7629468224
 20
269.2294414911
 30
0.0
 40
0.3174999999999881
100
AcDbArc
 50
89.8159545118
 51
146.0
  0
ARC
  5
136
330
1F
100
AcDbEntity
  8
0
  6
Continuous
 62
     5
370
    15
100
AcDbCircle
 10
20.8114604651
 20
284.3323241635
 30
0.0
 40
14.78546059019606
100
AcDbArc
 50
269.8159545118
 51
270.1840454882
  0
LINE
  5
137
330
1F
100
AcDbEntity
  8
0
  6
Continuous
 62
     5
370
    15
100
AcDbLine
 10
22.2094459645
 20
268.749172212
 30
0.0
 11
22.57996683
 21
269.5088529675
 31
0.0
  0
LINE
  5
138
330
1F
100
AcDbEntity
  8
0
  6
Continuous
 62
     5
370
    15
100
AcDbLine
 10
21.88120272
 20
268.5670818849
 30
0.0
 11
21.946226498
 21
268.5716286017
 31
0.0
  0
LINE
  5
139
330
1F
100
AcDbEntity
  8
0
  6
Continuous
 62
     5
370
    15
100
AcDbLine
 10
21.1231935431
 20
269.4069849042
 30
0.0
 11
21.5958356461
 21
268.7062643184
 31
0.0
  0
ARC
  5
13A
330
1F
100
AcDbEntity
  8
0
  6
Continuous
 62
     5
370
    15
100
AcDbCircle
 10
21.9240788543
 20
268.8883551765
 30
0.0
 40
0.3175000000000026
100
AcDbArc
 50
274.0
 51
334.0000000000001
  0
ARC
  5
13B
330
1F
100
AcDbEntity
  8
0
  6
Continuous
 62
     5
370
    15
100
AcDbCircle
 10
21.8590550567
 20
268.8838082696
 30
0.0
 40
0.3175000000000026
100
AcDbArc
 50
214.0
 51
274.0
  0
ARC
  5
13C
330
1F
100
AcDbEntity
  8
0
  6
Continuous
 62
     5
370
    15
100
AcDbCircle
 10
20.8599741078
 20
269.2294414911
 30
0.0
 40
0.317500000000017
100
AcDbArc
 50
34.00000000000001
 51
90.1840454882
  0
ARC
  5
13D
330
1F
100
AcDbEntity
  8
0
  6
Continuous
 62
     5
370
    15
100
AcDbCircle
 10
22.8653339688
 20
269.369669913
 30
0.0
 40
0.3175000000000082
100
AcDbArc
 50
97.8159545118
 51
154.0
  0
ARC
  5
13E
330
1F
100
AcDbEntity
  8
0
  6
Continuous
 62
     5
370
    15
100
AcDbCircle
 10
20.8114604651
 20
284.3323241635
 30
0.0
 40
14.78546059019608
100
AcDbArc
 50
277.8159545118
 51
278.1840454882
  0
LINE
  5
13F
330
1F
100
AcDbEntity
  8
0
  6
Continuous
 62
     5
370
    15
100
AcDbLine
 10
24.3645964842
 20
269.0953885852
 30
0.0
 11
24.6257842704
 21
269.8992419703
 31
0.0
  0
LINE
  5
140
330
1F
100
AcDbEntity
  8
0
  6
Continuous
 62
     5
370
    15
100
AcDbLine
 10
24.0648896619
 20
268.86938733
 30
0.0
 11
24.1286480053
 21
268.8829399361
 31
0.0
  0
LINE
  5
141
330
1F
100
AcDbEntity
  8
0
  6
Continuous
 62
     5
370
    15
100
AcDbLine
 10
23.1973654776
 20
269.5956224291
 30
0.0
 11
23.7629292718
 21
268.9675003005
 31
0.0
  0
ARC
  5
142
330
1F
100
AcDbEntity
  8
0
  6
Continuous
 62
     5
370
    15
100
AcDbCircle
 10
24.0626359836
 20
269.1935013724
 30
0.0
 40
0.3175000000000056
100
AcDbArc
 50
281.9999999999999
 51
342.0
  0
ARC
  5
143
330
1F
100
AcDbEntity
  8
0
  6
Continuous
 62
     5
370
    15
100
AcDbCircle
 10
23.9988778003
 20
269.1799491522
 30
0.0
 40
0.31750000000005
100
AcDbArc
 50
222.0
 51
281.9999999999999
  0
ARC
  5
144
330
1F
100
AcDbEntity
  8
0
  6
Continuous
 62
     5
370
    15
100
AcDbCircle
 10
22.9614169913
 20
269.3831735011
 30
0.0
 40
0.3174999999999872
100
AcDbArc
 50
42.0
 51
98.1840454882
  0
ARC
  5
145
330
1F
100
AcDbEntity
  8
0
  6
Continuous
 62
     5
370
    15
100
AcDbCircle
 10
24.9277448037
 20
269.8011293801
 30
0.0
 40
0.3174999999999946
100
AcDbArc
 50
105.8159545118
 51
162.0
  0
ARC
  5
146
330
1F
100
AcDbEntity
  8
0
  6
Continuous
 62
     5
370
    15
100
AcDbCircle
 10
20.8114604651
 20
284.3323241635
 30
0.0
 40
14.78546059019603
100
AcDbArc
 50
285.8159545118
 51
286.1840454882
  0
LINE
  5
147
330
1F
100
AcDbEntity
  8
0
  6
Continuous
 62
     5
370
    15
100
AcDbLine
 10
26.4505893178
 20
269.7381743877
 30
0.0
 11
26.5973601676
 21
270.5705551146
 31
0.0
  0
LINE
  5
148
330
1F
100
AcDbEntity
  8
0
  6
Continuous
 62
     5
370
    15
100
AcDbLine
 10
26.1852522566
 20
269.4726617722
 30
0.0
 11
26.2465039454
 21
269.4949548407
 31
0.0
  0
LINE
  5
149
330
1F
100
AcDbEntity
  8
0
  6
Continuous
 62
     5
370
    15
100
AcDbLine
 10
25.2250982634
 20
270.0710924058
 30
0.0
 11
25.872576069
 21
269.527794206
 31
0.0
  0
ARC
  5
14A
330
1F
100
AcDbEntity
  8
0
  6
Continuous
 62
     5
370
    15
100
AcDbCircle
 10
26.1379126797
 20
269.7933075338
 30
0.0
 40
0.3175000000000118
100
AcDbArc
 50
289.9999999999999
 51
349.9999999999999
  0
ARC
  5
14B
330
1F
100
AcDbEntity
  8
0
  6
Continuous
 62
     5
370
    15
100
AcDbCircle
 10
26.0766610911
 20
269.7710137788
 30
0.0
 40
0.3175000000000129
100
AcDbArc
 50
230.0
 51
289.9999999999999
  0
ARC
  5
14C
330
1F
100
AcDbEntity
  8
0
  6
Continuous
 62
     5
370
    15
100
AcDbCircle
 10
25.0210134166
 20
269.8278737244
 30
0.0
 40
0.3175000000000107
100
AcDbArc
 50
50.0
 51
106.1840454882
  0
ARC
  5
14D
330
1F
100
AcDbEntity
  8
0
  6
Continuous
 62
     5
370
    15
100
AcDbCircle
 10
26.9100368461
 20
270.5154220246
 30
0.0
 40
0.3174999999999948
100
AcDbArc
 50
113.8159545118
 51
170.0
  0
ARC
  5
14E
330
1F
100
AcDbEntity
  8
0
  6
Continuous
 62
     5
370
    15
100
AcDbCircle
 10
20.8114604651
 20
284.3323241635
 30
0.0
 40
14.78546059019603
100
AcDbArc
 50
293.8159545118
 51
294.1840454882001
  0
LINE
  5
14F
330
1F
100
AcDbEntity
  8
0
  6
Continuous
 62
     5
370
    15
100
AcDbLine
 10
28.4268227591
 20
270.665018232
 30
0.0
 11
28.456320539
 21
271.5097259445
 31
0.0
  0
LINE
  5
150
330
1F
100
AcDbEntity
  8
0
  6
Continuous
 62
     5
370
    15
100
AcDbLine
 10
28.2010203413
 20
270.3651621653
 30
0.0
 11
28.2585732824
 21
270.3957635625
 31
0.0
  0
LINE
  5
151
330
1F
100
AcDbEntity
  8
0
  6
Continuous
 62
     5
370
    15
100
AcDbLine
 10
27.1669249236
 20
270.8241421445
 30
0.0
 11
27.8837140835
 21
270.37624211
 31
0.0
  0
ARC
  5
152
330
1F
100
AcDbEntity
  8
0
  6
Continuous
 62
     5
370
    15
100
AcDbCircle
 10
28.1095160422
 20
270.676099116
 30
0.0
 40
0.3175000000000344
100
AcDbArc
 50
298.0
 51
358.0
  0
ARC
  5
153
330
1F
100
AcDbEntity
  8
0
  6
Continuous
 62
     5
370
    15
100
AcDbCircle
 10
28.0519632409
 20
270.6454977488
 30
0.0
 40
0.3174999999999859
100
AcDbArc
 50
238.0
 51
298.0
  0
ARC
  5
154
330
1F
100
AcDbEntity
  8
0
  6
Continuous
 62
     5
370
    15
100
AcDbCircle
 10
26.998675682
 20
270.554886577
 30
0.0
 40
0.317500000000013
100
AcDbArc
 50
58.00000000000001
 51
114.1840454882
  0
ARC
  5
155
330
1F
100
AcDbEntity
  8
0
  6
Continuous
 62
     5
370
    15
100
AcDbCircle
 10
28.7736270363
 20
271.4986449528
 30
0.0
 40
0.3174999999999957
100
AcDbArc
 50
121.8159545118
 51
178.0
  0
ARC
  5
156
330
1F
100
AcDbEntity
  8
0
  6
Continuous
 62
     5
370
    15
100
AcDbCircle
 10
20.8114604651
 20
284.3323241635
 30
0.0
 40
14.78546059019608
100
AcDbArc
 50
301.8159545118
 51
302.1840454882
  0
LINE
  5
157
330
1F
100
AcDbEntity
  8
0
  6
Continuous
 62
     5
370
    15
100
AcDbLine
 10
30.2548320218
 20
271.8578813313
 30
0.0
 11
30.1664821058
 21
272.698472598
 31
0.0
  0
LINE
  5
158
330
1F
100
AcDbEntity
  8
0
  6
Continuous
 62
     5
370
    15
100
AcDbLine
 10
30.0729586928
 20
271.5295174806
 30
0.0
 11
30.125692971
 21
271.5678302286
 31
0.0
  0
LINE
  5
159
330
1F
100
AcDbEntity
  8
0
  6
Continuous
 62
     5
370
    15
100
AcDbLine
 10
28.9850500598
 20
271.8401126279
 30
0.0
 11
29.7571984305
 21
271.4963298006
 31
0.0
  0
ARC
  5
15A
330
1F
100
AcDbEntity
  8
0
  6
Continuous
 62
     5
370
    15
100
AcDbCircle
 10
29.9390710542
 20
271.8246935851
 30
0.0
 40
0.3175000000000029
100
AcDbArc
 50
306.0
 51
6.0
  0
ARC
  5
15B
330
1F
100
AcDbEntity
  8
0
  6
Continuous
 62
     5
370
    15
100
AcDbCircle
 10
29.88633724
 20
271.7863802264
 30
0.0
 40
0.3174999999999839
100
AcDbArc
 50
246.0
 51
306.0
  0
ARC
  5
15C
330
1F
100
AcDbEntity
  8
0
  6
Continuous
 62
     5
370
    15
100
AcDbCircle
 10
28.855910841
 20
271.5500615805
 30
0.0
 40
0.3174999999999924
100
AcDbArc
 50
66.0
 51
122.1840454882
  0
ARC
  5
15D
330
1F
100
AcDbEntity
  8
0
  6
Continuous
 62
     5
370
    15
100
AcDbCircle
 10
30.4822427111
 20
272.7316608488
 30
0.0
 40
0.317499999999998
100
AcDbArc
 50
129.8159545118
 51
186.0
  0
ARC
  5
15E
330
1F
100
AcDbEntity
  8
0
  6
Continuous
 62
     5
370
    15
100
AcDbCircle
 10
20.8114604651
 20
284.3323241635
 30
0.0
 40
14.78546059019604
100
AcDbArc
 50
309.8159545118
 51
310.1840454882
  0
LINE
  5
15F
330
1F
100
AcDbEntity
  8
0
  6
Continuous
 62
     5
370
    15
100
AcDbLine
 10
31.8990363925
 20
273.2935448824
 30
0.0
 11
31.6945589333
 21
274.113660091
 31
0.0
  0
LINE
  5
160
330
1F
100
AcDbEntity
  8
0
  6
Continuous
 62
     5
370
    15
100
AcDbLine
 10
31.7646335065
 20
272.9430649145
 30
0.0
 11
31.8115218728
 21
272.9883448867
 31
0.0
  0
LINE
  5
161
330
1F
100
AcDbEntity
  8
0
  6
Continuous
 62
     5
370
    15
100
AcDbLine
 10
30.6440848111
 20
273.0992290838
 30
0.0
 11
31.456564106
 21
272.8662550165
 31
0.0
  0
ARC
  5
162
330
1F
100
AcDbEntity
  8
0
  6
Continuous
 62
     5
370
    15
100
AcDbCircle
 10
31.5909675087
 20
273.2167348561
 30
0.0
 40
0.3174999999999953
100
AcDbArc
 50
313.9999999999999
 51
14.0
  0
ARC
  5
163
330
1F
100
AcDbEntity
  8
0
  6
Continuous
 62
     5
370
    15
100
AcDbCircle
 10
31.5440790852
 20
273.171455232
 30
0.0
 40
0.3175000000000613
100
AcDbArc
 50
254.0
 51
313.9999999999999
  0
ARC
  5
164
330
1F
100
AcDbEntity
  8
0
  6
Continuous
 62
     5
370
    15
100
AcDbCircle
 10
30.5565699239
 20
272.7940287856
 30
0.0
 40
0.3175000000000132
100
AcDbArc
 50
74.0
 51
130.1840454882
  0
ARC
  5
165
330
1F
100
AcDbEntity
  8
0
  6
Continuous
 62
     5
370
    15
100
AcDbCircle
 10
32.0026276097
 20
274.1904704606
 30
0.0
 40
0.3175000000000385
100
AcDbArc
 50
137.8159545118
 51
194.0
  0
ARC
  5
166
330
1F
100
AcDbEntity
  8
0
  6
Continuous
 62
     5
370
    15
100
AcDbCircle
 10
20.8114604651
 20
284.3323241635
 30
0.0
 40
14.78546059019602
100
AcDbArc
 50
317.8159545118
 51
318.1840454882001
  0
LINE
  5
167
330
1F
100
AcDbEntity
  8
0
  6
Continuous
 62
     5
370
    15
100
AcDbLine
 10
33.3274337649
 20
274.9440664141
 30
0.0
 11
33.0108083039
 21
275.7277417643
 31
0.0
  0
LINE
  5
168
330
1F
100
AcDbEntity
  8
0
  6
Continuous
 62
     5
370
    15
100
AcDbLine
 10
33.2431164756
 20
274.5782913355
 30
0.0
 11
33.283246234
 21
274.6296556382
 31
0.0
  0
LINE
  5
169
330
1F
100
AcDbEntity
  8
0
  6
Continuous
 62
     5
370
    15
100
AcDbLine
 10
32.1117392927
 20
274.5769856213
 30
0.0
 11
32.9487356543
 21
274.4593539922
 31
0.0
  0
ARC
  5
16A
330
1F
100
AcDbEntity
  8
0
  6
Continuous
 62
     5
370
    15
100
AcDbCircle
 10
33.03305312
 20
274.8251284292
 30
0.0
 40
0.3175000000000166
100
AcDbArc
 50
322.0
 51
22.0
  0
ARC
  5
16B
330
1F
100
AcDbEntity
  8
0
  6
Continuous
 62
     5
370
    15
100
AcDbCircle
 10
32.9929227172
 20
274.773763856
 30
0.0
 40
0.3174999999999669
100
AcDbArc
 50
262.0
 51
322.0
  0
ARC
  5
16C
330
1F
100
AcDbEntity
  8
0
  6
Continuous
 62
     5
370
    15
100
AcDbCircle
 10
32.067551536
 20
274.2625757857
 30
0.0
 40
0.3175000000000226
100
AcDbArc
 50
81.99999999999999
 51
138.1840454882
  0
ARC
  5
16D
330
1F
100
AcDbEntity
  8
0
  6
Continuous
 62
     5
370
    15
100
AcDbCircle
 10
33.3051891697
 20
275.8466797185
 30
0.0
 40
0.3175000000000294
100
AcDbArc
 50
145.8159545118
 51
202.0
  0
ARC
  5
16E
330
1F
100
AcDbEntity
  8
0
  6
Continuous
 62
     5
370
    15
100
AcDbCircle
 10
20.8114604651
 20
284.3323241635
 30
0.0
 40
14.78546059019605
100
AcDbArc
 50
325.8159545118
 51
326.1840454882
  0
LINE
  5
16F
330
1F
100
AcDbEntity
  8
0
  6
Continuous
 62
     5
370
    15
100
AcDbLine
 10
34.5122222974
 20
276.7773185572
 30
0.0
 11
34.0896113961
 21
277.5093022449
 31
0.0
  0
LINE
  5
170
330
1F
100
AcDbEntity
  8
0
  6
Continuous
 62
     5
370
    15
100
AcDbLine
 10
34.4796306639
 20
276.4033687948
 30
0.0
 11
34.5122222974
 21
276.45981905
 31
0.0
  0
LINE
  5
171
330
1F
100
AcDbEntity
  8
0
  6
Continuous
 62
     5
370
    15
100
AcDbLine
 10
33.3594461157
 20
276.244619274
 30
0.0
 11
34.2046679183
 21
276.244619274
 31
0.0
  0
ARC
  5
172
330
1F
100
AcDbEntity
  8
0
  6
Continuous
 62
     5
370
    15
100
AcDbCircle
 10
34.2372593322
 20
276.618568753
 30
0.0
 40
0.3174999999999959
100
AcDbArc
 50
330.0
 51
30.0
  0
ARC
  5
173
330
1F
100
AcDbEntity
  8
0
  6
Continuous
 62
     5
370
    15
100
AcDbCircle
 10
34.2046680427
 20
276.5621189837
 30
0.0
 40
0.3175000000000021
100
AcDbArc
 50
270.0
 51
330.0
  0
ARC
  5
174
330
1F
100
AcDbEntity
  8
0
  6
Continuous
 62
     5
370
    15
100
AcDbCircle
 10
33.3594461391
 20
275.9271189837
 30
0.0
 40
0.3174999999999955
100
AcDbArc
 50
90.0
 51
146.1840454882
  0
ARC
  5
175
330
1F
100
AcDbEntity
  8
0
  6
Continuous
 62
     5
370
    15
100
AcDbCircle
 10
34.3645745118
 20
277.6680523933
 30
0.0
 40
0.3175000000000258
100
AcDbArc
 50
153.8159545118
 51
210.0
  0
ARC
  5
176
330
1F
100
AcDbEntity
  8
0
  6
Continuous
 62
     5
370
    15
100
AcDbCircle
 10
20.8114604651
 20
284.3323241635
 30
0.0
 40
14.78546059019603
100
AcDbArc
 50
333.8159545118
 51
334.1840454882001
  0
LINE
  5
177
330
1F
100
AcDbEntity
  8
0
  6
Continuous
 62
     5
370
    15
100
AcDbLine
 10
35.4303415119
 20
278.7576209469
 30
0.0
 11
34.9099706113
 21
279.4236651337
 31
0.0
  0
LINE
  5
178
330
1F
100
AcDbEntity
  8
0
  6
Continuous
 62
     5
370
    15
100
AcDbLine
 10
35.4501106962
 20
278.3827747865
 30
0.0
 11
35.4745281114
 21
278.4432111023
 31
0.0
  0
LINE
  5
179
330
1F
100
AcDbEntity
  8
0
  6
Continuous
 62
     5
370
    15
100
AcDbLine
 10
34.3629210442
 20
278.0696701905
 30
0.0
 11
35.1999174058
 21
278.1873022853
 31
0.0
  0
ARC
  5
17A
330
1F
100
AcDbEntity
  8
0
  6
Continuous
 62
     5
370
    15
100
AcDbCircle
 10
35.180147641
 20
278.5621485516
 30
0.0
 40
0.3174999999999963
100
AcDbArc
 50
338.0
 51
37.99999999999999
  0
ARC
  5
17B
330
1F
100
AcDbEntity
  8
0
  6
Continuous
 62
     5
370
    15
100
AcDbCircle
 10
35.1557298171
 20
278.5017123167
 30
0.0
 40
0.3175000000000232
100
AcDbArc
 50
278.0
 51
338.0
  0
ARC
  5
17C
330
1F
100
AcDbEntity
  8
0
  6
Continuous
 62
     5
370
    15
100
AcDbCircle
 10
34.4071084742
 20
277.7552599398
 30
0.0
 40
0.3175000000000601
100
AcDbArc
 50
97.99999999999999
 51
154.1840454882
  0
ARC
  5
17D
330
1F
100
AcDbEntity
  8
0
  6
Continuous
 62
     5
370
    15
100
AcDbCircle
 10
35.1601639055
 20
279.6191375376
 30
0.0
 40
0.3175000000000018
100
AcDbArc
 50
161.8159545118
 51
218.0
  0
ARC
  5
17E
330
1F
100
AcDbEntity
  8
0
  6
Continuous
 62
     5
370
    15
100
AcDbCircle
 10
20.8114604651
 20
284.3323241635
 30
0.0
 40
14.78546059019603
100
AcDbArc
 50
341.8159545118
 51
342.1840454882
  0
LINE
  5
17F
330
1F
100
AcDbEntity
  8
0
  6
Continuous
 62
     5
370
    15
100
AcDbLine
 10
36.0639202594
 20
280.846428703
 30
0.0
 11
35.4559184238
 21
281.4335691458
 31
0.0
  0
LINE
  5
180
330
1F
100
AcDbEntity
  8
0
  6
Continuous
 62
     5
370
    15
100
AcDbLine
 10
36.1356656253
 20
280.47798166
 30
0.0
 11
36.1514347791
 21
280.5412280089
 31
0.0
  0
LINE
  5
181
330
1F
100
AcDbEntity
  8
0
  6
Continuous
 62
     5
370
    15
100
AcDbLine
 10
35.1026323809
 20
280.0166163309
 30
0.0
 11
35.9151116758
 21
280.2495913295
 31
0.0
  0
ARC
  5
182
330
1F
100
AcDbEntity
  8
0
  6
Continuous
 62
     5
370
    15
100
AcDbCircle
 10
35.8433657982
 20
280.618038255
 30
0.0
 40
0.3175000000000064
100
AcDbArc
 50
346.0
 51
46.0
  0
ARC
  5
183
330
1F
100
AcDbEntity
  8
0
  6
Continuous
 62
     5
370
    15
100
AcDbCircle
 10
35.8275967051
 20
280.5547918771
 30
0.0
 40
0.3174999999999988
100
AcDbArc
 50
286.0
 51
346.0
  0
ARC
  5
184
330
1F
100
AcDbEntity
  8
0
  6
Continuous
 62
     5
370
    15
100
AcDbCircle
 10
35.1901469856
 20
279.7114159696
 30
0.0
 40
0.3174999999999654
100
AcDbArc
 50
106.0
 51
162.1840454882
  0
ARC
  5
185
330
1F
100
AcDbEntity
  8
0
  6
Continuous
 62
     5
370
    15
100
AcDbCircle
 10
35.6764721081
 20
281.6619594984
 30
0.0
 40
0.3175000000000114
100
AcDbArc
 50
169.8159545118
 51
226.0
  0
ARC
  5
186
330
1F
100
AcDbEntity
  8
0
  6
Continuous
 62
     5
370
    15
100
AcDbCircle
 10
20.8114604651
 20
284.3323241635
 30
0.0
 40
14.78546059019601
100
AcDbArc
 50
349.8159545117999
 51
350.1840454882
  0
LINE
  5
187
330
1F
100
AcDbEntity
  8
0
  6
Continuous
 62
     5
370
    15
100
AcDbLine
 10
36.4006268977
 20
283.0030851713
 30
0.0
 11
35.7168275117
 21
283.4998941928
 31
0.0
  0
LINE
  5
188
330
1F
100
AcDbEntity
  8
0
  6
Continuous
 62
     5
370
    15
100
AcDbLine
 10
36.5229523926
 20
282.6482090116
 30
0.0
 11
36.5297659486
 21
282.7130345343
 31
0.0
  0
LINE
  5
189
330
1F
100
AcDbEntity
  8
0
  6
Continuous
 62
     5
370
    15
100
AcDbLine
 10
35.5641818791
 20
282.0475633437
 30
0.0
 11
36.3363302498
 21
282.391346171
 31
0.0
  0
ARC
  5
18A
330
1F
100
AcDbEntity
  8
0
  6
Continuous
 62
     5
370
    15
100
AcDbCircle
 10
36.2140050165
 20
282.7462223087
 30
0.0
 40
0.3175000000000469
100
AcDbArc
 50
354.0
 51
54.0
  0
ARC
  5
18B
330
1F
100
AcDbEntity
  8
0
  6
Continuous
 62
     5
370
    15
100
AcDbCircle
 10
36.2071915817
 20
282.6813968066
 30
0.0
 40
0.3175000000000027
100
AcDbArc
 50
294.0000000000001
 51
354.0
  0
ARC
  5
18C
330
1F
100
AcDbEntity
  8
0
  6
Continuous
 62
     5
370
    15
100
AcDbCircle
 10
35.6933207193
 20
281.7575127213
 30
0.0
 40
0.3175000000000329
100
AcDbArc
 50
114.0
 51
170.1840454882
  0
ARC
  5
18D
330
1F
100
AcDbEntity
  8
0
  6
Continuous
 62
     5
370
    15
100
AcDbCircle
 10
35.9034497677
 20
283.7567570699
 30
0.0
 40
0.3175000000000051
100
AcDbArc
 50
177.8159545118
 51
234.0
  0
ARC
  5
18E
330
1F
100
AcDbEntity
  8
0
  6
Continuous
 62
     5
370
    15
100
AcDbCircle
 10
20.8114604651
 20
284.3323241635
 30
0.0
 40
14.785460590196
100
AcDbArc
 50
357.8159545118
 51
358.1840454882
  0
LINE
  5
18F
330
1F
100
AcDbEntity
  8
0
  6
Continuous
 62
     5
370
    15
100
AcDbLine
 10
36.4339086413
 20
285.1856138971
 30
0.0
 11
35.6876221671
 21
285.5824215751
 31
0.0
  0
LINE
  5
190
330
1F
100
AcDbEntity
  8
0
  6
Continuous
 62
     5
370
    15
100
AcDbLine
 10
36.604431942
 20
284.8512157746
 30
0.0
 11
36.6021576523
 21
284.9163586455
 31
0.0
  0
LINE
  5
191
330
1F
100
AcDbEntity
  8
0
  6
Continuous
 62
     5
370
    15
100
AcDbLine
 10
35.7385869323
 20
284.1229805147
 30
0.0
 11
36.4553756266
 21
284.5708798944
 31
0.0
  0
ARC
  5
192
330
1F
100
AcDbEntity
  8
0
  6
Continuous
 62
     5
370
    15
100
AcDbCircle
 10
36.2848512253
 20
284.9052780308
 30
0.0
 40
0.3175000000000344
100
AcDbArc
 50
2.0
 51
62.0
  0
ARC
  5
193
330
1F
100
AcDbEntity
  8
0
  6
Continuous
 62
     5
370
    15
100
AcDbCircle
 10
36.2871260645
 20
284.8401351592
 30
0.0
 40
0.3174999999999941
100
AcDbArc
 50
302.0
 51
2.0
  0
ARC
  5
194
330
1F
100
AcDbEntity
  8
0
  6
Continuous
 62
     5
370
    15
100
AcDbCircle
 10
35.9068359711
 20
283.8537252489
 30
0.0
 40
0.3175
100
AcDbArc
 50
122.0
 51
178.1840454882
  0
ARC
  5
195
330
1F
100
AcDbEntity
  8
0
  6
Continuous
 62
     5
370
    15
100
AcDbCircle
 10
35.8366790225
 20
285.8627574002
 30
0.0
 40
0.3175000000000023
100
AcDbArc
 50
185.8159545118
 51
242.0
  0
ARC
  5
196
330
1F
100
AcDbEntity
  8
0
  6
Continuous
 62
     5
370
    15
100
AcDbCircle
 10
20.8114604651
 20
284.3323241635
 30
0.0
 40
14.785460590196
100
AcDbArc
 50
5.815954511799999
 51
6.184045488199999
  0
LINE
  5
197
330
1F
100
AcDbEntity
  8
0
  6
Continuous
 62
     5
370
    15
100
AcDbLine
 10
36.1631172895
 20
287.3515343474
 30
0.0
 11
35.3688677027
 21
287.6406171074
 31
0.0
  0
LINE
  5
198
330
1F
100
AcDbEntity
  8
0
  6
Continuous
 62
     5
370
    15
100
AcDbLine
 10
36.3785210251
 20
287.0441229264
 30
0.0
 11
36.3672017305
 21
287.1083152661
 31
0.0
  0
LINE
  5
199
330
1F
100
AcDbEntity
  8
0
  6
Continuous
 62
     5
370
    15
100
AcDbLine
 10
35.6224519386
 20
286.2024722802
 30
0.0
 11
36.2699297442
 21
286.74577048
 31
0.0
  0
ARC
  5
19A
330
1F
100
AcDbEntity
  8
0
  6
Continuous
 62
     5
370
    15
100
AcDbCircle
 10
36.0545254836
 20
287.0531818576
 30
0.0
 40
0.3175000000000118
100
AcDbArc
 50
10.0
 51
70.0
  0
ARC
  5
19B
330
1F
100
AcDbEntity
  8
0
  6
Continuous
 62
     5
370
    15
100
AcDbCircle
 10
36.0658443197
 20
286.9889895484
 30
0.0
 40
0.3175000000000175
100
AcDbArc
 50
310.0
 51
10.0
  0
ARC
  5
19C
330
1F
100
AcDbEntity
  8
0
  6
Continuous
 62
     5
370
    15
100
AcDbCircle
 10
35.8265369095
 20
285.95925316
 30
0.0
 40
0.3174999999999967
100
AcDbArc
 50
130.0
 51
186.1840454882
  0
ARC
  5
19D
330
1F
100
AcDbEntity
  8
0
  6
Continuous
 62
     5
370
    15
100
AcDbCircle
 10
35.477459489
 20
287.9389695884
 30
0.0
 40
0.3175000000000044
100
AcDbArc
 50
193.8159545118
 51
250.0
  0
ARC
  5
19E
330
1F
100
AcDbEntity
  8
0
  6
Continuous
 62
     5
370
    15
100
AcDbCircle
 10
20.8114604651
 20
284.3323241635
 30
0.0
 40
14.78546059019601
100
AcDbArc
 50
13.8159545118
 51
14.1840454882
  0
LINE
  5
19F
330
1F
100
AcDbEntity
  8
0
  6
Continuous
 62
     5
370
    15
100
AcDbLine
 10
35.5935231968
 20
289.4586891583
 30
0.0
 11
34.7667713835
 21
289.6344208805
 31
0.0
  0
LINE
  5
1A0
330
1F
100
AcDbEntity
  8
0
  6
Continuous
 62
     5
370
    15
100
AcDbLine
 10
35.8496136218
 20
289.1842479533
 30
0.0
 11
35.8294709771
 21
289.2462400435
 31
0.0
  0
LINE
  5
1A1
330
1F
100
AcDbEntity
  8
0
  6
Continuous
 62
     5
370
    15
100
AcDbLine
 10
35.2180381491
 20
288.2455637394
 30
0.0
 11
35.7836014777
 21
288.8736858679
 31
0.0
  0
ARC
  5
1A2
330
1F
100
AcDbEntity
  8
0
  6
Continuous
 62
     5
370
    15
100
AcDbCircle
 10
35.5275108201
 20
289.1481272843
 30
0.0
 40
0.3175000000000022
100
AcDbArc
 50
18.0
 51
77.99999999999999
  0
ARC
  5
1A3
330
1F
100
AcDbEntity
  8
0
  6
Continuous
 62
     5
370
    15
100
AcDbCircle
 10
35.5476533448
 20
289.0861349678
 30
0.0
 40
0.3175000000000198
100
AcDbArc
 50
318.0000000000001
 51
18.0
  0
ARC
  5
1A4
330
1F
100
AcDbEntity
  8
0
  6
Continuous
 62
     5
370
    15
100
AcDbCircle
 10
35.4539864642
 20
288.0331147487
 30
0.0
 40
0.3174999999999899
100
AcDbArc
 50
138.0
 51
194.1840454882
  0
ARC
  5
1A5
330
1F
100
AcDbEntity
  8
0
  6
Continuous
 62
     5
370
    15
100
AcDbCircle
 10
34.8327829668
 20
289.9449825259
 30
0.0
 40
0.3174999999999922
100
AcDbArc
 50
201.8159545118
 51
258.0
  0
ARC
  5
1A6
330
1F
100
AcDbEntity
  8
0
  6
Continuous
 62
     5
370
    15
100
AcDbCircle
 10
20.8114604651
 20
284.3323241635
 30
0.0
 40
14.785460590196
100
AcDbArc
 50
21.8159545118
 51
22.1840454882
  0
LINE
  5
1A7
330
1F
100
AcDbEntity
  8
0
  6
Continuous
 62
     5
370
    15
100
AcDbLine
 10
34.7362128272
 20
291.4660650952
 30
0.0
 11
33.8930492475
 21
291.5250247991
 31
0.0
  0
LINE
  5
1A8
330
1F
100
AcDbEntity
  8
0
  6
Continuous
 62
     5
370
    15
100
AcDbLine
 10
35.0280064344
 20
291.229935707
 30
0.0
 11
34.9994325265
 21
291.2885214849
 31
0.0
  0
LINE
  5
1A9
330
1F
100
AcDbEntity
  8
0
  6
Continuous
 62
     5
370
    15
100
AcDbLine
 10
34.5332161709
 20
290.2124886116
 30
0.0
 11
35.0058586522
 21
290.9132091975
 31
0.0
  0
ARC
  5
1AA
330
1F
100
AcDbEntity
  8
0
  6
Continuous
 62
     5
370
    15
100
AcDbCircle
 10
34.7140649757
 20
291.1493385812
 30
0.0
 40
0.3174999999999909
100
AcDbArc
 50
26.0
 51
86.0
  0
ARC
  5
1AB
330
1F
100
AcDbEntity
  8
0
  6
Continuous
 62
     5
370
    15
100
AcDbCircle
 10
34.7426391377
 20
291.0907528672
 30
0.0
 40
0.317500000000017
100
AcDbArc
 50
325.9999999999999
 51
26.0
  0
ARC
  5
1AC
330
1F
100
AcDbEntity
  8
0
  6
Continuous
 62
     5
370
    15
100
AcDbCircle
 10
34.7964359059
 20
290.0349446583
 30
0.0
 40
0.3175000000000055
100
AcDbArc
 50
146.0
 51
202.1840454882
  0
ARC
  5
1AD
330
1F
100
AcDbEntity
  8
0
  6
Continuous
 62
     5
370
    15
100
AcDbCircle
 10
33.9151973511
 20
291.8417514526
 30
0.0
 40
0.3175000000000135
100
AcDbArc
 50
209.8159545118
 51
266.0
  0
ARC
  5
1AE
330
1F
100
AcDbEntity
  8
0
  6
Continuous
 62
     5
370
    15
100
AcDbCircle
 10
20.8114604651
 20
284.3323241635
 30
0.0
 40
14.785460590196
100
AcDbArc
 50
29.8159545118
 51
30.1840454882
  0
LINE
  5
1AF
330
1F
100
AcDbEntity
  8
0
  6
Continuous
 62
     5
370
    15
100
AcDbLine
 10
33.6078726872
 20
293.3345906152
 30
0.0
 11
32.7647100388
 21
293.2756313769
 31
0.0
  0
LINE
  5
1B0
330
1F
100
AcDbEntity
  8
0
  6
Continuous
 62
     5
370
    15
100
AcDbLine
 10
33.9296902715
 20
293.1413691206
 30
0.0
 11
33.8932401686
 21
293.1954081817
 31
0.0
  0
LINE
  5
1B1
330
1F
100
AcDbEntity
  8
0
  6
Continuous
 62
     5
370
    15
100
AcDbLine
 10
33.5813169553
 20
292.0649623214
 30
0.0
 11
33.9518371224
 21
292.8246430768
 31
0.0
  0
ARC
  5
1B2
330
1F
100
AcDbEntity
  8
0
  6
Continuous
 62
     5
370
    15
100
AcDbCircle
 10
33.6300207485
 20
293.0178644467
 30
0.0
 40
0.3175000000000111
100
AcDbArc
 50
34.00000000000001
 51
94.0
  0
ARC
  5
1B3
330
1F
100
AcDbEntity
  8
0
  6
Continuous
 62
     5
370
    15
100
AcDbCircle
 10
33.6664703842
 20
292.9638256396
 30
0.0
 40
0.3175000000000094
100
AcDbArc
 50
334.0000000000001
 51
34.00000000000001
  0
ARC
  5
1B4
330
1F
100
AcDbEntity
  8
0
  6
Continuous
 62
     5
370
    15
100
AcDbCircle
 10
33.8666837084
 20
291.9257795466
 30
0.0
 40
0.317499999999995
100
AcDbArc
 50
154.0
 51
210.1840454882
  0
ARC
  5
1B5
330
1F
100
AcDbEntity
  8
0
  6
Continuous
 62
     5
370
    15
100
AcDbCircle
 10
32.7425624022
 20
293.5923579191
 30
0.0
 40
0.3174999999999994
100
AcDbArc
 50
217.8159545118
 51
274.0
  0
ARC
  5
1B6
330
1F
100
AcDbEntity
  8
0
  6
Continuous
 62
     5
370
    15
100
AcDbCircle
 10
20.8114604651
 20
284.3323241635
 30
0.0
 40
14.785460590196
100
AcDbArc
 50
37.8159545118
 51
38.1840454882
  0
LINE
  5
1B7
330
1F
100
AcDbEntity
  8
0
  6
Continuous
 62
     5
370
    15
100
AcDbLine
 10
32.2304661571
 20
295.0278980373
 30
0.0
 11
31.4037143438
 21
294.8521667807
 31
0.0
  0
LINE
  5
1B8
330
1F
100
AcDbEntity
  8
0
  6
Continuous
 62
     5
370
    15
100
AcDbLine
 10
32.5760417803
 20
294.8813451169
 30
0.0
 11
32.5324260815
 21
294.9297850667
 31
0.0
  0
LINE
  5
1B9
330
1F
100
AcDbEntity
  8
0
  6
Continuous
 62
     5
370
    15
100
AcDbLine
 10
32.380866371
 20
293.7669291808
 30
0.0
 11
32.6420539244
 21
294.5707834972
 31
0.0
  0
ARC
  5
1BA
330
1F
100
AcDbEntity
  8
0
  6
Continuous
 62
     5
370
    15
100
AcDbCircle
 10
32.2964778263
 20
294.7173361502
 30
0.0
 40
0.3174999999999952
100
AcDbArc
 50
42.0
 51
102.0
  0
ARC
  5
1BB
330
1F
100
AcDbEntity
  8
0
  6
Continuous
 62
     5
370
    15
100
AcDbCircle
 10
32.3400934849
 20
294.6688960538
 30
0.0
 40
0.3175000000000227
100
AcDbArc
 50
342.0
 51
42.0
  0
ARC
  5
1BC
330
1F
100
AcDbEntity
  8
0
  6
Continuous
 62
     5
370
    15
100
AcDbCircle
 10
32.6828264406
 20
293.6688164633
 30
0.0
 40
0.3175000000000089
100
AcDbArc
 50
162.0
 51
218.1840454882
  0
ARC
  5
1BD
330
1F
100
AcDbEntity
  8
0
  6
Continuous
 62
     5
370
    15
100
AcDbCircle
 10
31.3377021256
 20
295.1627283616
 30
0.0
 40
0.3174999999999952
100
AcDbArc
 50
225.8159545118
 51
281.9999999999999
  0
ARC
  5
1BE
330
1F
100
AcDbEntity
  8
0
  6
Continuous
 62
     5
370
    15
100
AcDbCircle
 10
20.8114604651
 20
284.3323241635
 30
0.0
 40
14.785460590196
100
AcDbArc
 50
45.8159545118
 51
46.1840454882
  0
LINE
  5
1BF
330
1F
100
AcDbEntity
  8
0
  6
Continuous
 62
     5
370
    15
100
AcDbLine
 10
30.6308004259
 20
296.5130278556
 30
0.0
 11
29.8365517705
 21
296.2239453284
 31
0.0
  0
LINE
  5
1C0
330
1F
100
AcDbEntity
  8
0
  6
Continuous
 62
     5
370
    15
100
AcDbLine
 10
30.993409939
 20
296.4159961505
 30
0.0
 11
30.9434770792
 21
296.4578944905
 31
0.0
  0
LINE
  5
1C1
330
1F
100
AcDbEntity
  8
0
  6
Continuous
 62
     5
370
    15
100
AcDbLine
 10
30.9552303701
 20
295.2852625115
 30
0.0
 11
31.1020012199
 21
296.1176432384
 31
0.0
  0
ARC
  5
1C2
330
1F
100
AcDbEntity
  8
0
  6
Continuous
 62
     5
370
    15
100
AcDbCircle
 10
30.7393921051
 20
296.2146754081
 30
0.0
 40
0.317500000000052
100
AcDbArc
 50
50.0
 51
110.0
  0
ARC
  5
1C3
330
1F
100
AcDbEntity
  8
0
  6
Continuous
 62
     5
370
    15
100
AcDbCircle
 10
30.7893248576
 20
296.172776854
 30
0.0
 40
0.3175000000000061
100
AcDbArc
 50
349.9999999999999
 51
50.0
  0
ARC
  5
1C4
330
1F
100
AcDbEntity
  8
0
  6
Continuous
 62
     5
370
    15
100
AcDbCircle
 10
31.2679065375
 20
295.2301291775
 30
0.0
 40
0.3175000000000318
100
AcDbArc
 50
170.0
 51
226.1840454882
  0
ARC
  5
1C5
330
1F
100
AcDbEntity
  8
0
  6
Continuous
 62
     5
370
    15
100
AcDbCircle
 10
29.7279605284
 20
296.5222973058
 30
0.0
 40
0.3175000000000004
100
AcDbArc
 50
233.8159545118
 51
289.9999999999999
  0
ARC
  5
1C6
330
1F
100
AcDbEntity
  8
0
  6
Continuous
 62
     5
370
    15
100
AcDbCircle
 10
20.8114604651
 20
284.3323241635
 30
0.0
 40
14.78546059019599
100
AcDbArc
 50
53.81595451179999
 51
54.18404548819999
  0
LINE
  5
1C7
330
1F
100
AcDbEntity
  8
0
  6
Continuous
 62
     5
370
    15
100
AcDbLine
 10
28.8400133326
 20
297.7610736801
 30
0.0
 11
28.0937263928
 21
297.364266002
 31
0.0
  0
LINE
  5
1C8
330
1F
100
AcDbEntity
  8
0
  6
Continuous
 62
     5
370
    15
100
AcDbLine
 10
29.2125982418
 20
297.7154519124
 30
0.0
 11
29.1573195904
 21
297.7499937354
 31
0.0
  0
LINE
  5
1C9
330
1F
100
AcDbEntity
  8
0
  6
Continuous
 62
     5
370
    15
100
AcDbLine
 10
29.3321567773
 20
296.5904086544
 30
0.0
 11
29.3616554885
 21
297.4351163669
 31
0.0
  0
ARC
  5
1CA
330
1F
100
AcDbEntity
  8
0
  6
Continuous
 62
     5
370
    15
100
AcDbCircle
 10
28.9890704874
 20
297.4807382151
 30
0.0
 40
0.3175000000000377
100
AcDbArc
 50
58.00000000000001
 51
118.0
  0
ARC
  5
1CB
330
1F
100
AcDbEntity
  8
0
  6
Continuous
 62
     5
370
    15
100
AcDbCircle
 10
29.0443484495
 20
297.4461967108
 30
0.0
 40
0.317500000000026
100
AcDbArc
 50
358.0
 51
58.00000000000001
  0
ARC
  5
1CC
330
1F
100
AcDbEntity
  8
0
  6
Continuous
 62
     5
370
    15
100
AcDbCircle
 10
29.6494638056
 20
296.5793285132
 30
0.0
 40
0.3174999999999977
100
AcDbArc
 50
178.0
 51
234.1840454882
  0
ARC
  5
1CD
330
1F
100
AcDbEntity
  8
0
  6
Continuous
 62
     5
370
    15
100
AcDbCircle
 10
27.9446693999
 20
297.6446022886
 30
0.0
 40
0.3175000000000361
100
AcDbArc
 50
241.8159545118
 51
298.0
  0
ARC
  5
1CE
330
1F
100
AcDbEntity
  8
0
  6
Continuous
 62
     5
370
    15
100
AcDbCircle
 10
20.8114604651
 20
284.3323241635
 30
0.0
 40
14.78546059019598
100
AcDbArc
 50
61.81595451180001
 51
62.18404548819999
  0
LINE
  5
1CF
330
1F
100
AcDbEntity
  8
0
  6
Continuous
 62
     5
370
    15
100
AcDbLine
 10
26.8929591588
 20
298.7477447553
 30
0.0
 11
26.2091602384
 21
298.2509363158
 31
0.0
  0
LINE
  5
1D0
330
1F
100
AcDbEntity
  8
0
  6
Continuous
 62
     5
370
    15
100
AcDbLine
 10
27.2682672552
 20
298.7544204755
 30
0.0
 11
27.2087198868
 21
298.7809324352
 31
0.0
  0
LINE
  5
1D1
330
1F
100
AcDbEntity
  8
0
  6
Continuous
 62
     5
370
    15
100
AcDbLine
 10
27.5432388484
 20
297.6569657861
 30
0.0
 11
27.4548889323
 21
298.4975579841
 31
0.0
  0
ARC
  5
1D2
330
1F
100
AcDbEntity
  8
0
  6
Continuous
 62
     5
370
    15
100
AcDbCircle
 10
27.0795809926
 20
298.4908820986
 30
0.0
 40
0.3175000000000329
100
AcDbArc
 50
66.0
 51
126.0
  0
ARC
  5
1D3
330
1F
100
AcDbEntity
  8
0
  6
Continuous
 62
     5
370
    15
100
AcDbCircle
 10
27.1391282416
 20
298.4643699552
 30
0.0
 40
0.3174999999999956
100
AcDbArc
 50
6.0
 51
66.0
  0
ARC
  5
1D4
330
1F
100
AcDbEntity
  8
0
  6
Continuous
 62
     5
370
    15
100
AcDbCircle
 10
27.8589993919
 20
297.6901538399
 30
0.0
 40
0.3174999999999992
100
AcDbArc
 50
186.0
 51
242.1840454882
  0
ARC
  5
1D5
330
1F
100
AcDbEntity
  8
0
  6
Continuous
 62
     5
370
    15
100
AcDbCircle
 10
26.0225384734
 20
298.5077989203
 30
0.0
 40
0.3174999999999958
100
AcDbArc
 50
249.8159545118
 51
306.0
  0
ARC
  5
1D6
330
1F
100
AcDbEntity
  8
0
  6
Continuous
 62
     5
370
    15
100
AcDbCircle
 10
20.8114604651
 20
284.3323241635
 30
0.0
 40
14.78546059019597
100
AcDbArc
 50
69.8159545118
 51
70.1840454882
  0
LINE
  5
1D7
330
1F
100
AcDbEntity
  8
0
  6
Continuous
 62
     5
370
    15
100
AcDbLine
 10
24.8275357484
 20
299.4538362785
 30
0.0
 11
24.2195339128
 21
298.8666960685
 31
0.0
  0
LINE
  5
1D8
330
1F
100
AcDbEntity
  8
0
  6
Continuous
 62
     5
370
    15
100
AcDbLine
 10
25.1982622034
 20
299.5126800327
 30
0.0
 11
25.1356046832
 21
299.5306461765
 31
0.0
  0
LINE
  5
1D9
330
1F
100
AcDbEntity
  8
0
  6
Continuous
 62
     5
370
    15
100
AcDbLine
 10
25.6232936121
 20
298.4641737951
 30
0.0
 11
25.4188161529
 21
299.2842890037
 31
0.0
  0
ARC
  5
1DA
330
1F
100
AcDbEntity
  8
0
  6
Continuous
 62
     5
370
    15
100
AcDbCircle
 10
25.0480896615
 20
299.2254457571
 30
0.0
 40
0.3175000000000047
100
AcDbArc
 50
74.0
 51
134.0
  0
ARC
  5
1DB
330
1F
100
AcDbEntity
  8
0
  6
Continuous
 62
     5
370
    15
100
AcDbCircle
 10
25.110747178
 20
299.2074790034
 30
0.0
 40
0.3175000000000091
100
AcDbArc
 50
14.0
 51
74.0
  0
ARC
  5
1DC
330
1F
100
AcDbEntity
  8
0
  6
Continuous
 62
     5
370
    15
100
AcDbCircle
 10
25.9313626493
 20
298.5409842063
 30
0.0
 40
0.3175000000000217
100
AcDbArc
 50
194.0
 51
250.1840454882
  0
ARC
  5
1DD
330
1F
100
AcDbEntity
  8
0
  6
Continuous
 62
     5
370
    15
100
AcDbCircle
 10
23.9989798409
 20
299.0950860601
 30
0.0
 40
0.3175000000000163
100
AcDbArc
 50
257.8159545118
 51
313.9999999999999
  0
ARC
  5
1DE
330
1F
100
AcDbEntity
  8
0
  6
Continuous
 62
     5
370
    15
100
AcDbCircle
 10
20.8114604651
 20
284.3323241635
 30
0.0
 40
14.78546059019596
100
AcDbArc
 50
77.8159545118
 51
78.1840454882
  0
LINE
  5
1DF
330
1F
100
AcDbEntity
  8
0
  6
Continuous
 62
     5
370
    15
100
AcDbLine
 10
22.6839437568
 20
299.8656047223
 30
0.0
 11
22.1635732054
 21
299.1995600699
 31
0.0
  0
LINE
  5
1E0
330
1F
100
AcDbEntity
  8
0
  6
Continuous
 62
     5
370
    15
100
AcDbLine
 10
23.0428727995
 20
299.9754700525
 30
0.0
 11
22.9783246945
 21
299.9845411344
 31
0.0
  0
LINE
  5
1E1
330
1F
100
AcDbEntity
  8
0
  6
Continuous
 62
     5
370
    15
100
AcDbLine
 10
23.6096920165
 20
298.9963212697
 30
0.0
 11
23.2930663227
 21
299.7799975513
 31
0.0
  0
ARC
  5
1E2
330
1F
100
AcDbEntity
  8
0
  6
Continuous
 62
     5
370
    15
100
AcDbCircle
 10
22.9341371623
 20
299.6701317444
 30
0.0
 40
0.3175000000000038
100
AcDbArc
 50
81.99999999999999
 51
142.0
  0
ARC
  5
1E3
330
1F
100
AcDbEntity
  8
0
  6
Continuous
 62
     5
370
    15
100
AcDbCircle
 10
22.9986853889
 20
299.6610600828
 30
0.0
 40
0.3174999999999806
100
AcDbArc
 50
22.0
 51
81.99999999999999
  0
ARC
  5
1E4
330
1F
100
AcDbEntity
  8
0
  6
Continuous
 62
     5
370
    15
100
AcDbCircle
 10
23.9040728346
 20
299.1152591671
 30
0.0
 40
0.3174999999999984
100
AcDbArc
 50
202.0
 51
258.1840454882
  0
ARC
  5
1E5
330
1F
100
AcDbEntity
  8
0
  6
Continuous
 62
     5
370
    15
100
AcDbCircle
 10
21.9133797696
 20
299.3950328321
 30
0.0
 40
0.3175000000000071
100
AcDbArc
 50
265.8159545118
 51
322.0
  0
ARC
  5
1E6
330
1F
100
AcDbEntity
  8
0
  6
Continuous
 62
     5
370
    15
100
AcDbCircle
 10
20.8114604651
 20
284.3323241635
 30
0.0
 40
14.78546059019597
100
AcDbArc
 50
85.81595451180002
 51
86.1840454882
  0
ENDSEC
  0
SECTION
  2
OBJECTS
  0
DICTIONARY
  5
C
330
0
100
AcDbDictionary
281
     1
  3
ACAD_DETAILVIEWSTYLE
350
212
  3
ACAD_GROUP
350
D
  3
ACAD_IMAGE_VARS
350
20A
  3
ACAD_LAYOUT
350
1A
  3
ACAD_MATERIAL
350
200
  3
ACAD_MLEADERSTYLE
350
206
  3
ACAD_MLINESTYLE
350
17
  3
ACAD_PLOTSETTINGS
350
19
  3
ACAD_PLOTSTYLENAME
350
E
  3
ACAD_SCALELIST
350
47
  3
ACAD_SECTIONVIEWSTYLE
350
213
  3
ACAD_TABLESTYLE
350
204
  3
ACAD_VISUALSTYLE
350
1E7
  3
ACDB_RECOMPOSE_DATA
350
20D
  3
AcDbVariableDictionary
350
20E
  3
APPDATA
350
208
  0
SUN
  5
209
330
29
100
AcDbSun
 90
        1
290
     0
 63
     7
421
 16777215
 40
1.0
291
     1
 91
  2455826
 92
 54000000
292
     0
 70
     2
 71
   256
280
     1
  0
DICTIONARY
  5
212
102
{ACAD_REACTORS
330
C
102
}
330
C
100
AcDbDictionary
281
     1
  0
DICTIONARY
  5
D
102
{ACAD_REACTORS
330
C
102
}
330
C
100
AcDbDictionary
281
     1
  0
RASTERVARIABLES
  5
20A
102
{ACAD_REACTORS
330
C
102
}
330
C
100
AcDbRasterVariables
 90
        0
 70
     1
 71
     1
 72
     1
  0
DICTIONARY
  5
1A
102
{ACAD_REACTORS
330
C
102
}
330
C
100
AcDbDictionary
281
     1
  3
Layout1
350
1E
  3
Layout2
350
26
  3
Model
350
22
  0
DICTIONARY
  5
200
102
{ACAD_REACTORS
330
C
102
}
330
C
100
AcDbDictionary
281
     1
  3
ByBlock
350
202
  3
ByLayer
350
201
  3
Global
350
203
  0
DICTIONARY
  5
206
102
{ACAD_REACTORS
330
C
102
}
330
C
100
AcDbDictionary
281
     1
  3
Standard
350
207
  0
DICTIONARY
  5
17
102
{ACAD_REACTORS
330
C
102
}
330
C
100
AcDbDictionary
281
     1
  3
Standard
350
18
  0
DICTIONARY
  5
19
102
{ACAD_REACTORS
330
C
102
}
330
C
100
AcDbDictionary
281
     1
  0
ACDBDICTIONARYWDFLT
  5
E
102
{ACAD_REACTORS
330
C
102
}
330
C
100
AcDbDictionary
281
     1
  3
Normal
350
F
100
AcDbDictionaryWithDefault
340
F
  0
DICTIONARY
  5
47
102
{ACAD_REACTORS
330
C
102
}
330
C
100
AcDbDictionary
281
     1
  3
A0
350
48
  3
A1
350
49
  3
A2
350
4A
  3
A3
350
4B
  3
A4
350
4C
  3
A5
350
4D
  3
A6
350
4E
  3
A7
350
4F
  3
A8
350
50
  3
A9
350
51
  3
B0
350
52
  3
B1
350
53
  3
B2
350
54
  3
B3
350
55
  3
B4
350
56
  3
B5
350
57
  3
B6
350
58
  3
B7
350
59
  3
B8
350
5A
  3
B9
350
5B
  3
C0
350
5C
  3
C1
350
5D
  3
C2
350
5E
  3
C3
350
5F
  3
C4
350
60
  3
C5
350
61
  3
C6
350
62
  3
C7
350
63
  3
C8
350
64
  3
C9
350
65
  3
D0
350
66
  3
D1
350
67
  3
D2
350
68
  0
DICTIONARY
  5
213
102
{ACAD_REACTORS
330
C
102
}
330
C
100
AcDbDictionary
281
     1
  0
DICTIONARY
  5
204
102
{ACAD_REACTORS
330
C
102
}
330
C
100
AcDbDictionary
281
     1
  3
Standard
350
205
  0
DICTIONARY
  5
1E7
102
{ACAD_REACTORS
330
C
102
}
330
C
100
AcDbDictionary
281
     1
  3
2dWireframe
350
1EC
  3
Basic
350
1EF
  3
Brighten
350
1F3
  3
ColorChange
350
1F7
  3
Conceptual
350
1F1
  3
Dim
350
1F2
  3
EdgeColorOff
350
1FA
  3
Facepattern
350
1F6
  3
Flat
350
1E8
  3
FlatWithEdges
350
1E9
  3
Gouraud
350
1EA
  3
GouraudWithEdges
350
1EB
  3
Hidden
350
1EE
  3
JitterOff
350
1F8
  3
Linepattern
350
1F5
  3
OverhangOff
350
1F9
  3
Realistic
350
1F0
  3
Shaded
350
1FF
  3
Shaded with edges
350
1FE
  3
Shades of Gray
350
1FB
  3
Sketchy
350
1FC
  3
Thicken
350
1F4
  3
Wireframe
350
1ED
  3
X-Ray
350
1FD
  0
XRECORD
  5
20D
102
{ACAD_REACTORS
330
C
102
}
330
C
100
AcDbXrecord
280
     1
 90
        1
330
205
  0
DICTIONARY
  5
20E
102
{ACAD_REACTORS
330
C
102
}
330
C
100
AcDbDictionary
281
     1
  3
CMLEADERSTYLE
350
210
  3
CTABLESTYLE
350
20F
  3
MSLTSCALE
350
211
  0
DICTIONARY
  5
208
102
{ACAD_REACTORS
330
C
102
}
330
C
100
AcDbDictionary
281
     1
  0
LAYOUT
  5
1E
102
{ACAD_REACTORS
330
1A
102
}
330
1A
100
AcDbPlotSettings
  1

  2
none_device
  4

  6

 40
0.0
 41
0.0
 42
0.0
 43
0.0
 44
0.0
 45
0.0
 46
0.0
 47
0.0
 48
0.0
 49
0.0
140
0.0
141
0.0
142
1.0
143
1.0
 70
   688
 72
     1
 73
     0
 74
     5
  7

 75
    16
 76
     0
 77
     2
 78
   300
147
1.0
148
0.0
149
0.0
100
AcDbLayout
  1
Layout1
 70
     1
 71
     1
 10
0.0
 20
0.0
 11
420.0
 21
297.0
 12
0.0
 22
0.0
 32
0.0
 14
1.000000000000000E+20
 24
1.000000000000000E+20
 34
1.000000000000000E+20
 15
-1.000000000000000E+20
 25
-1.000000000000000E+20
 35
-1.000000000000000E+20
146
0.0
 13
0.0
 23
0.0
 33
0.0
 16
1.0
 26
0.0
 36
0.0
 17
0.0
 27
1.0
 37
0.0
 76
     0
330
1B
  0
LAYOUT
  5
26
102
{ACAD_REACTORS
330
1A
102
}
330
1A
100
AcDbPlotSettings
  1

  2
none_device
  4

  6

 40
0.0
 41
0.0
 42
0.0
 43
0.0
 44
0.0
 45
0.0
 46
0.0
 47
0.0
 48
0.0
 49
0.0
140
0.0
141
0.0
142
1.0
143
1.0
 70
   688
 72
     1
 73
     0
 74
     5
  7

 75
    16
 76
     0
 77
     2
 78
   300
147
1.0
148
0.0
149
0.0
100
AcDbLayout
  1
Layout2
 70
     1
 71
     2
 10
0.0
 20
0.0
 11
0.0
 21
0.0
 12
0.0
 22
0.0
 32
0.0
 14
0.0
 24
0.0
 34
0.0
 15
0.0
 25
0.0
 35
0.0
146
0.0
 13
0.0
 23
0.0
 33
0.0
 16
1.0
 26
0.0
 36
0.0
 17
0.0
 27
1.0
 37
0.0
 76
     0
330
23
  0
LAYOUT
  5
22
102
{ACAD_REACTORS
330
1A
102
}
330
1A
100
AcDbPlotSettings
  1

  2
none_device
  4
Letter_(8.50_x_11.00_Inches)
  6

 40
6.35
 41
6.35
 42
6.35000508
 43
6.35000508
 44
215.9
 45
279.4
 46
0.0
 47
0.0
 48
0.0
 49
0.0
140
0.0
141
0.0
142
1.0
143
1.0
 70
  1712
 72
     1
 73
     0
 74
     0
  7

 75
     0
 76
     0
 77
     2
 78
   300
147
1.0
148
0.0
149
0.0
100
AcDbLayout
  1
Model
 70
     1
 71
     0
 10
0.0
 20
0.0
 11
304.8
 21
304.8
 12
0.0
 22
0.0
 32
0.0
 14
0.0
 24
0.0
 34
0.0
 15
304.8
 25
304.8
 35
0.0
146
0.0
 13
0.0
 23
0.0
 33
0.0
 16
1.0
 26
0.0
 36
0.0
 17
0.0
 27
1.0
 37
0.0
 76
     0
330
1F
331
29
  0
MATERIAL
  5
202
102
{ACAD_REACTORS
330
200
102
}
330
200
100
AcDbMaterial
  1
ByBlock
 72
     1
 94
      127
  0
MATERIAL
  5
201
102
{ACAD_REACTORS
330
200
102
}
330
200
100
AcDbMaterial
  1
ByLayer
 72
     1
 94
      127
  0
MATERIAL
  5
203
102
{ACAD_REACTORS
330
200
102
}
330
200
100
AcDbMaterial
  1
Global
 72
     1
 94
      127
  0
MLEADERSTYLE
  5
207
102
{ACAD_REACTORS
330
206
102
}
330
206
100
AcDbMLeaderStyle
179
     2
170
     2
171
     1
172
     0
 90
        2
 40
0.0
 41
0.0
173
     1
 91
-1056964608
340
14
 92
       -2
290
     1
 42
2.0
291
     1
 43
8.0
  3
Standard
341
0
 44
4.0
300

342
11
174
     1
178
     6
175
     1
176
     0
 93
-1056964608
 45
4.0
292
     0
297
     0
 46
4.0
343
0
 94
-1056964608
 47
1.0
 49
1.0
140
1.0
293
     1
141
0.0
294
     1
177
     0
142
1.0
295
     0
296
     0
143
3.75
271
     0
272
     9
273
     9
  0
MLINESTYLE
  5
18
102
{ACAD_REACTORS
330
17
102
}
330
17
100
AcDbMlineStyle
  2
Standard
 70
     0
  3

 62
   256
 51
90.0
 52
90.0
 71
     2
 49
0.5
 62
   256
  6
BYLAYER
 49
-0.5
 62
   256
  6
BYLAYER
  0
ACDBPLACEHOLDER
  5
F
102
{ACAD_REACTORS
330
E
102
}
330
E
  0
SCALE
  5
48
102
{ACAD_REACTORS
330
47
102
}
330
47
100
AcDbScale
 70
     0
300
1:1
140
1.0
141
1.0
290
     1
  0
SCALE
  5
49
102
{ACAD_REACTORS
330
47
102
}
330
47
100
AcDbScale
 70
     0
300
1:2
140
1.0
141
2.0
290
     0
  0
SCALE
  5
4A
102
{ACAD_REACTORS
330
47
102
}
330
47
100
AcDbScale
 70
     0
300
1:4
140
1.0
141
4.0
290
     0
  0
SCALE
  5
4B
102
{ACAD_REACTORS
330
47
102
}
330
47
100
AcDbScale
 70
     0
300
1:5
140
1.0
141
5.0
290
     0
  0
SCALE
  5
4C
102
{ACAD_REACTORS
330
47
102
}
330
47
100
AcDbScale
 70
     0
300
1:8
140
1.0
141
8.0
290
     0
  0
SCALE
  5
4D
102
{ACAD_REACTORS
330
47
102
}
330
47
100
AcDbScale
 70
     0
300
1:10
140
1.0
141
10.0
290
     0
  0
SCALE
  5
4E
102
{ACAD_REACTORS
330
47
102
}
330
47
100
AcDbScale
 70
     0
300
1:16
140
1.0
141
16.0
290
     0
  0
SCALE
  5
4F
102
{ACAD_REACTORS
330
47
102
}
330
47
100
AcDbScale
 70
     0
300
1:20
140
1.0
141
20.0
290
     0
  0
SCALE
  5
50
102
{ACAD_REACTORS
330
47
102
}
330
47
100
AcDbScale
 70
     0
300
1:30
140
1.0
141
30.0
290
     0
  0
SCALE
  5
51
102
{ACAD_REACTORS
330
47
102
}
330
47
100
AcDbScale
 70
     0
300
1:40
140
1.0
141
40.0
290
     0
  0
SCALE
  5
52
102
{ACAD_REACTORS
330
47
102
}
330
47
100
AcDbScale
 70
     0
300
1:50
140
1.0
141
50.0
290
     0
  0
SCALE
  5
53
102
{ACAD_REACTORS
330
47
102
}
330
47
100
AcDbScale
 70
     0
300
1:100
140
1.0
141
100.0
290
     0
  0
SCALE
  5
54
102
{ACAD_REACTORS
330
47
102
}
330
47
100
AcDbScale
 70
     0
300
2:1
140
2.0
141
1.0
290
     0
  0
SCALE
  5
55
102
{ACAD_REACTORS
330
47
102
}
330
47
100
AcDbScale
 70
     0
300
4:1
140
4.0
141
1.0
290
     0
  0
SCALE
  5
56
102
{ACAD_REACTORS
330
47
102
}
330
47
100
AcDbScale
 70
     0
300
8:1
140
8.0
141
1.0
290
     0
  0
SCALE
  5
57
102
{ACAD_REACTORS
330
47
102
}
330
47
100
AcDbScale
 70
     0
300
10:1
140
10.0
141
1.0
290
     0
  0
SCALE
  5
58
102
{ACAD_REACTORS
330
47
102
}
330
47
100
AcDbScale
 70
     0
300
100:1
140
100.0
141
1.0
290
     0
  0
SCALE
  5
59
102
{ACAD_REACTORS
330
47
102
}
330
47
100
AcDbScale
 70
     0
300
1/128" = 1'-0"
140
0.0078125
141
12.0
290
     0
  0
SCALE
  5
5A
102
{ACAD_REACTORS
330
47
102
}
330
47
100
AcDbScale
 70
     0
300
1/64" = 1'-0"
140
0.015625
141
12.0
290
     0
  0
SCALE
  5
5B
102
{ACAD_REACTORS
330
47
102
}
330
47
100
AcDbScale
 70
     0
300
1/32" = 1'-0"
140
0.03125
141
12.0
290
     0
  0
SCALE
  5
5C
102
{ACAD_REACTORS
330
47
102
}
330
47
100
AcDbScale
 70
     0
300
1/16" = 1'-0"
140
0.0625
141
12.0
290
     0
  0
SCALE
  5
5D
102
{ACAD_REACTORS
330
47
102
}
330
47
100
AcDbScale
 70
     0
300
3/32" = 1'-0"
140
0.09375
141
12.0
290
     0
  0
SCALE
  5
5E
102
{ACAD_REACTORS
330
47
102
}
330
47
100
AcDbScale
 70
     0
300
1/8" = 1'-0"
140
0.125
141
12.0
290
     0
  0
SCALE
  5
5F
102
{ACAD_REACTORS
330
47
102
}
330
47
100
AcDbScale
 70
     0
300
3/16" = 1'-0"
140
0.1875
141
12.0
290
     0
  0
SCALE
  5
60
102
{ACAD_REACTORS
330
47
102
}
330
47
100
AcDbScale
 70
     0
300
1/4" = 1'-0"
140
0.25
141
12.0
290
     0
  0
SCALE
  5
61
102
{ACAD_REACTORS
330
47
102
}
330
47
100
AcDbScale
 70
     0
300
3/8" = 1'-0"
140
0.375
141
12.0
290
     0
  0
SCALE
  5
62
102
{ACAD_REACTORS
330
47
102
}
330
47
100
AcDbScale
 70
     0
300
1/2" = 1'-0"
140
0.5
141
12.0
290
     0
  0
SCALE
  5
63
102
{ACAD_REACTORS
330
47
102
}
330
47
100
AcDbScale
 70
     0
300
3/4" = 1'-0"
140
0.75
141
12.0
290
     0
  0
SCALE
  5
64
102
{ACAD_REACTORS
330
47
102
}
330
47
100
AcDbScale
 70
     0
300
1" = 1'-0"
140
1.0
141
12.0
290
     0
  0
SCALE
  5
65
102
{ACAD_REACTORS
330
47
102
}
330
47
100
AcDbScale
 70
     0
300
1-1/2" = 1'-0"
140
1.5
141
12.0
290
     0
  0
SCALE
  5
66
102
{ACAD_REACTORS
330
47
102
}
330
47
100
AcDbScale
 70
     0
300
3" = 1'-0"
140
3.0
141
12.0
290
     0
  0
SCALE
  5
67
102
{ACAD_REACTORS
330
47
102
}
330
47
100
AcDbScale
 70
     0
300
6" = 1'-0"
140
6.0
141
12.0
290
     0
  0
SCALE
  5
68
102
{ACAD_REACTORS
330
47
102
}
330
47
100
AcDbScale
 70
     0
300
1'-0" = 1'-0"
140
12.0
141
12.0
290
     0
  0
TABLESTYLE
  5
205
102
{ACAD_REACTORS
330
204
102
}
102
{ACAD_XDICTIONARY
360
20B
102
}
330
204
100
AcDbTableStyle
  3
Standard
 70
     0
 71
     0
 40
0.06
 41
0.06
280
     0
281
     0
  7
Standard
140
4.5
170
     2
 62
     0
 63
   257
283
     0
 90
        4
 91
        0
  1

274
    -2
284
     1
 64
     0
275
    -2
285
     1
 65
     0
276
    -2
286
     1
 66
     0
277
    -2
287
     1
 67
     0
278
    -2
288
     1
 68
     0
279
    -2
289
     1
 69
     0
  7
Standard
140
6.0
170
     5
 62
     0
 63
   257
283
     0
 90
        4
 91
        0
  1

274
    -2
284
     1
 64
     0
275
    -2
285
     1
 65
     0
276
    -2
286
     1
 66
     0
277
    -2
287
     1
 67
     0
278
    -2
288
     1
 68
     0
279
    -2
289
     1
 69
     0
  7
Standard
140
4.5
170
     5
 62
     0
 63
   257
283
     0
 90
        4
 91
        0
  1

274
    -2
284
     1
 64
     0
275
    -2
285
     1
 65
     0
276
    -2
286
     1
 66
     0
277
    -2
287
     1
 67
     0
278
    -2
288
     1
 68
     0
279
    -2
289
     1
 69
     0
  0
VISUALSTYLE
  5
1EC
102
{ACAD_REACTORS
330
1E7
102
}
330
1E7
100
AcDbVisualStyle
  2
2dWireframe
 70
     4
177
     2
291
     0
 71
     0
176
     1
 72
     2
176
     1
 73
     0
176
     1
 90
        0
176
     1
 40
0.6
176
     1
 41
30.0
176
     1
 62
     5
 63
     7
421
 16777215
176
     1
 74
     1
176
     1
 91
        4
176
     1
 64
     7
176
     1
 65
   257
176
     1
 75
     1
176
     1
175
     1
176
     1
 42
1.0
176
     1
 92
        0
176
     1
 66
   257
176
     1
 43
1.0
176
     1
 76
     1
176
     1
 77
     6
176
     1
 78
     2
176
     1
 67
     7
176
     1
 79
     5
176
     1
170
     0
176
     1
171
     0
176
     1
290
     0
176
     1
 93
        1
176
     1
 44
0.0
176
     1
173
     0
176
     1
  0
VISUALSTYLE
  5
1EF
102
{ACAD_REACTORS
330
1E7
102
}
330
1E7
100
AcDbVisualStyle
  2
Basic
 70
     7
177
     2
291
     1
 71
     1
176
     1
 72
     0
176
     1
 73
     1
176
     1
 90
        0
176
     1
 40
0.6
176
     1
 41
30.0
176
     1
 62
     5
 63
     7
421
 16777215
176
     1
 74
     0
176
     1
 91
        4
176
     1
 64
     7
176
     1
 65
   257
176
     1
 75
     1
176
     1
175
     1
176
     1
 42
1.0
176
     1
 92
        8
176
     1
 66
     7
176
     1
 43
1.0
176
     1
 76
     1
176
     1
 77
     6
176
     1
 78
     2
176
     1
 67
     7
176
     1
 79
     5
176
     1
170
     0
176
     1
171
     0
176
     1
290
     0
176
     1
 93
        1
176
     1
 44
0.0
176
     1
173
     0
176
     1
  0
VISUALSTYLE
  5
1F3
102
{ACAD_REACTORS
330
1E7
102
}
330
1E7
100
AcDbVisualStyle
  2
Brighten
 70
    12
177
     2
291
     1
 71
     2
176
     1
 72
     2
176
     1
 73
     0
176
     1
 90
        0
176
     1
 40
0.6
176
     1
 41
30.0
176
     1
 62
     5
 63
     7
421
 16777215
176
     1
 74
     1
176
     1
 91
        4
176
     1
 64
     7
176
     1
 65
   257
176
     1
 75
     1
176
     1
175
     1
176
     1
 42
1.0
176
     1
 92
        8
176
     1
 66
     7
176
     1
 43
1.0
176
     1
 76
     1
176
     1
 77
     6
176
     1
 78
     2
176
     1
 67
     7
176
     1
 79
     5
176
     1
170
     0
176
     1
171
     0
176
     1
290
     0
176
     1
 93
        1
176
     1
 44
50.0
176
     1
173
     0
176
     1
  0
VISUALSTYLE
  5
1F7
102
{ACAD_REACTORS
330
1E7
102
}
330
1E7
100
AcDbVisualStyle
  2
ColorChange
 70
    16
177
     2
291
     1
 71
     2
176
     1
 72
     2
176
     1
 73
     3
176
     1
 90
        0
176
     1
 40
0.6
176
     1
 41
30.0
176
     1
 62
     5
 63
     8
421
  8421504
176
     1
 74
     1
176
     1
 91
        4
176
     1
 64
     7
176
     1
 65
   257
176
     1
 75
     1
176
     1
175
     1
176
     1
 42
1.0
176
     1
 92
        8
176
     1
 66
     8
424
  8421504
176
     1
 43
1.0
176
     1
 76
     1
176
     1
 77
     6
176
     1
 78
     2
176
     1
 67
     7
176
     1
 79
     5
176
     1
170
     0
176
     1
171
     0
176
     1
290
     0
176
     1
 93
        1
176
     1
 44
0.0
176
     1
173
     0
176
     1
  0
VISUALSTYLE
  5
1F1
102
{ACAD_REACTORS
330
1E7
102
}
330
1E7
100
AcDbVisualStyle
  2
Conceptual
 70
     9
177
     2
291
     0
 71
     3
176
     1
 72
     2
176
     1
 73
     0
176
     1
 90
        0
176
     1
 40
0.6
176
     1
 41
30.0
176
     1
 62
     5
 63
     7
421
 16777215
176
     1
 74
     2
176
     1
 91
        2
176
     1
 64
     7
176
     1
 65
   257
176
     1
 75
     1
176
     1
175
     1
176
     1
 42
179.0
176
     1
 92
        8
176
     1
 66
     7
176
     1
 43
1.0
176
     1
 76
     1
176
     1
 77
     6
176
     1
 78
     2
176
     1
 67
     7
176
     1
 79
     3
176
     1
170
     0
176
     1
171
     0
176
     1
290
     0
176
     1
 93
        1
176
     1
 44
0.0
176
     1
173
     0
176
     1
  0
VISUALSTYLE
  5
1F2
102
{ACAD_REACTORS
330
1E7
102
}
330
1E7
100
AcDbVisualStyle
  2
Dim
 70
    11
177
     2
291
     1
 71
     2
176
     1
 72
     2
176
     1
 73
     0
176
     1
 90
        0
176
     1
 40
0.6
176
     1
 41
30.0
176
     1
 62
     5
 63
     7
421
 16777215
176
     1
 74
     1
176
     1
 91
        4
176
     1
 64
     7
176
     1
 65
   257
176
     1
 75
     1
176
     1
175
     1
176
     1
 42
1.0
176
     1
 92
        8
176
     1
 66
     7
176
     1
 43
1.0
176
     1
 76
     1
176
     1
 77
     6
176
     1
 78
     2
176
     1
 67
     7
176
     1
 79
     5
176
     1
170
     0
176
     1
171
     0
176
     1
290
     0
176
     1
 93
        1
176
     1
 44
-50.0
176
     1
173
     0
176
     1
  0
VISUALSTYLE
  5
1FA
102
{ACAD_REACTORS
330
1E7
102
}
330
1E7
100
AcDbVisualStyle
  2
EdgeColorOff
 70
    22
177
     2
291
     1
 71
     2
176
     0
 72
     2
176
     0
 73
     0
176
     0
 90
        0
176
     0
 40
0.6
176
     0
 41
30.0
176
     0
 62
     5
 63
     7
421
 16777215
176
     0
 74
     1
176
     0
 91
        4
176
     0
 64
     7
176
     0
 65
   257
176
     0
 75
     1
176
     0
175
     1
176
     0
 42
1.0
176
     0
 92
        8
176
     2
 66
     7
176
     0
 43
1.0
176
     0
 76
     1
176
     0
 77
     6
176
     0
 78
     2
176
     0
 67
     7
176
     0
 79
     5
176
     0
170
     0
176
     0
171
     0
176
     0
290
     0
176
     0
 93
        1
176
     0
 44
0.0
176
     0
173
     0
176
     0
  0
VISUALSTYLE
  5
1F6
102
{ACAD_REACTORS
330
1E7
102
}
330
1E7
100
AcDbVisualStyle
  2
Facepattern
 70
    15
177
     2
291
     1
 71
     2
176
     1
 72
     2
176
     1
 73
     0
176
     1
 90
        0
176
     1
 40
0.6
176
     1
 41
30.0
176
     1
 62
     5
 63
     7
421
 16777215
176
     1
 74
     1
176
     1
 91
        4
176
     1
 64
     7
176
     1
 65
   257
176
     1
 75
     1
176
     1
175
     1
176
     1
 42
1.0
176
     1
 92
        8
176
     1
 66
     7
176
     1
 43
1.0
176
     1
 76
     1
176
     1
 77
     6
176
     1
 78
     2
176
     1
 67
     7
176
     1
 79
     5
176
     1
170
     0
176
     1
171
     0
176
     1
290
     0
176
     1
 93
        1
176
     1
 44
0.0
176
     1
173
     0
176
     1
  0
VISUALSTYLE
  5
1E8
102
{ACAD_REACTORS
330
1E7
102
}
330
1E7
100
AcDbVisualStyle
  2
Flat
 70
     0
177
     2
291
     1
 71
     2
176
     1
 72
     1
176
     1
 73
     1
176
     1
 90
        2
176
     1
 40
0.6
176
     1
 41
30.0
176
     1
 62
     5
 63
     7
421
 16777215
176
     1
 74
     0
176
     1
 91
        0
176
     1
 64
     7
176
     1
 65
   257
176
     1
 75
     1
176
     1
175
     1
176
     1
 42
1.0
176
     1
 92
        8
176
     1
 66
     7
176
     1
 43
1.0
176
     1
 76
     1
176
     1
 77
     6
176
     1
 78
     2
176
     1
 67
     7
176
     1
 79
     5
176
     1
170
     0
176
     1
171
     0
176
     1
290
     0
176
     1
 93
       13
176
     1
 44
0.0
176
     1
173
     0
176
     1
  0
VISUALSTYLE
  5
1E9
102
{ACAD_REACTORS
330
1E7
102
}
330
1E7
100
AcDbVisualStyle
  2
FlatWithEdges
 70
     1
177
     2
291
     1
 71
     2
176
     1
 72
     1
176
     1
 73
     1
176
     1
 90
        2
176
     1
 40
0.6
176
     1
 41
30.0
176
     1
 62
     5
 63
     7
421
 16777215
176
     1
 74
     1
176
     1
 91
        0
176
     1
 64
     7
176
     1
 65
   257
176
     1
 75
     1
176
     1
175
     1
176
     1
 42
1.0
176
     1
 92
        0
176
     1
 66
   257
176
     1
 43
1.0
176
     1
 76
     1
176
     1
 77
     6
176
     1
 78
     2
176
     1
 67
     7
176
     1
 79
     5
176
     1
170
     0
176
     1
171
     0
176
     1
290
     0
176
     1
 93
       13
176
     1
 44
0.0
176
     1
173
     0
176
     1
  0
VISUALSTYLE
  5
1EA
102
{ACAD_REACTORS
330
1E7
102
}
330
1E7
100
AcDbVisualStyle
  2
Gouraud
 70
     2
177
     2
291
     1
 71
     2
176
     1
 72
     2
176
     1
 73
     1
176
     1
 90
        2
176
     1
 40
0.6
176
     1
 41
30.0
176
     1
 62
     5
 63
     7
421
 16777215
176
     1
 74
     0
176
     1
 91
        0
176
     1
 64
     7
176
     1
 65
   257
176
     1
 75
     1
176
     1
175
     1
176
     1
 42
1.0
176
     1
 92
        0
176
     1
 66
     7
176
     1
 43
1.0
176
     1
 76
     1
176
     1
 77
     6
176
     1
 78
     2
176
     1
 67
     7
176
     1
 79
     5
176
     1
170
     0
176
     1
171
     0
176
     1
290
     0
176
     1
 93
       13
176
     1
 44
0.0
176
     1
173
     0
176
     1
  0
VISUALSTYLE
  5
1EB
102
{ACAD_REACTORS
330
1E7
102
}
330
1E7
100
AcDbVisualStyle
  2
GouraudWithEdges
 70
     3
177
     2
291
     1
 71
     2
176
     1
 72
     2
176
     1
 73
     1
176
     1
 90
        2
176
     1
 40
0.6
176
     1
 41
30.0
176
     1
 62
     5
 63
     7
421
 16777215
176
     1
 74
     1
176
     1
 91
        0
176
     1
 64
     7
176
     1
 65
   257
176
     1
 75
     1
176
     1
175
     1
176
     1
 42
1.0
176
     1
 92
        0
176
     1
 66
   257
176
     1
 43
1.0
176
     1
 76
     1
176
     1
 77
     6
176
     1
 78
     2
176
     1
 67
     7
176
     1
 79
     5
176
     1
170
     0
176
     1
171
     0
176
     1
290
     0
176
     1
 93
       13
176
     1
 44
0.0
176
     1
173
     0
176
     1
  0
VISUALSTYLE
  5
1EE
102
{ACAD_REACTORS
330
1E7
102
}
330
1E7
100
AcDbVisualStyle
  2
Hidden
 70
     6
177
     2
291
     0
 71
     1
176
     1
 72
     2
176
     1
 73
     2
176
     1
 90
        0
176
     1
 40
0.6
176
     1
 41
30.0
176
     1
 62
     5
 63
     7
421
 16777215
176
     1
 74
     2
176
     1
 91
        2
176
     1
 64
     7
176
     1
 65
   257
176
     1
 75
     2
176
     1
175
     1
176
     1
 42
40.0
176
     1
 92
        0
176
     1
 66
   257
176
     1
 43
1.0
176
     1
 76
     1
176
     1
 77
     6
176
     1
 78
     2
176
     1
 67
     7
176
     1
 79
     3
176
     1
170
     0
176
     1
171
     0
176
     1
290
     0
176
     1
 93
        1
176
     1
 44
0.0
176
     1
173
     0
176
     1
  0
VISUALSTYLE
  5
1F8
102
{ACAD_REACTORS
330
1E7
102
}
330
1E7
100
AcDbVisualStyle
  2
JitterOff
 70
    20
177
     2
291
     1
 71
     2
176
     0
 72
     2
176
     0
 73
     0
176
     0
 90
        0
176
     0
 40
0.6
176
     0
 41
30.0
176
     0
 62
     5
 63
     7
421
 16777215
176
     0
 74
     1
176
     0
 91
        4
176
     0
 64
     7
176
     0
 65
   257
176
     0
 75
     1
176
     0
175
     1
176
     0
 42
1.0
176
     0
 92
       10
176
     2
 66
     7
176
     0
 43
1.0
176
     0
 76
     1
176
     0
 77
     6
176
     0
 78
     2
176
     0
 67
     7
176
     0
 79
     5
176
     0
170
     0
176
     0
171
     0
176
     0
290
     0
176
     0
 93
        1
176
     0
 44
0.0
176
     0
173
     0
176
     0
  0
VISUALSTYLE
  5
1F5
102
{ACAD_REACTORS
330
1E7
102
}
330
1E7
100
AcDbVisualStyle
  2
Linepattern
 70
    14
177
     2
291
     1
 71
     2
176
     1
 72
     2
176
     1
 73
     0
176
     1
 90
        0
176
     1
 40
0.6
176
     1
 41
30.0
176
     1
 62
     5
 63
     7
421
 16777215
176
     1
 74
     1
176
     1
 91
        4
176
     1
 64
     7
176
     1
 65
   257
176
     1
 75
     7
176
     1
175
     7
176
     1
 42
1.0
176
     1
 92
        8
176
     1
 66
     7
176
     1
 43
1.0
176
     1
 76
     1
176
     1
 77
     6
176
     1
 78
     2
176
     1
 67
     7
176
     1
 79
     5
176
     1
170
     0
176
     1
171
     0
176
     1
290
     0
176
     1
 93
        1
176
     1
 44
0.0
176
     1
173
     0
176
     1
  0
VISUALSTYLE
  5
1F9
102
{ACAD_REACTORS
330
1E7
102
}
330
1E7
100
AcDbVisualStyle
  2
OverhangOff
 70
    21
177
     2
291
     1
 71
     2
176
     0
 72
     2
176
     0
 73
     0
176
     0
 90
        0
176
     0
 40
0.6
176
     0
 41
30.0
176
     0
 62
     5
 63
     7
421
 16777215
176
     0
 74
     1
176
     0
 91
        4
176
     0
 64
     7
176
     0
 65
   257
176
     0
 75
     1
176
     0
175
     1
176
     0
 42
1.0
176
     0
 92
        9
176
     2
 66
     7
176
     0
 43
1.0
176
     0
 76
     1
176
     0
 77
     6
176
     0
 78
     2
176
     0
 67
     7
176
     0
 79
     5
176
     0
170
     0
176
     0
171
     0
176
     0
290
     0
176
     0
 93
        1
176
     0
 44
0.0
176
     0
173
     0
176
     0
  0
VISUALSTYLE
  5
1F0
102
{ACAD_REACTORS
330
1E7
102
}
330
1E7
100
AcDbVisualStyle
  2
Realistic
 70
     8
177
     2
291
     0
 71
     2
176
     1
 72
     3
176
     1
 73
     0
176
     1
 90
        2
176
     1
 40
0.6
176
     1
 41
30.0
176
     1
 62
     5
 63
     7
421
 16777215
176
     1
 74
     0
176
     1
 91
        0
176
     1
 64
     7
176
     1
 65
   257
176
     1
 75
     1
176
     1
175
     1
176
     1
 42
1.0
176
     1
 92
        8
176
     1
 66
   257
176
     1
 43
1.0
176
     1
 76
     1
176
     1
 77
     6
176
     1
 78
     2
176
     1
 67
     7
176
     1
 79
     3
176
     1
170
     0
176
     1
171
     0
176
     1
290
     0
176
     1
 93
       13
176
     1
 44
0.0
176
     1
173
     0
176
     1
  0
VISUALSTYLE
  5
1FF
102
{ACAD_REACTORS
330
1E7
102
}
330
1E7
100
AcDbVisualStyle
  2
Shaded
 70
    27
177
     2
291
     0
 71
     2
176
     1
 72
     2
176
     1
 73
     1
176
     1
 90
        2
176
     1
 40
0.6
176
     1
 41
30.0
176
     1
 62
     5
 63
     7
421
 16777215
176
     1
 74
     0
176
     1
 91
        4
176
     1
 64
     7
176
     1
 65
   257
176
     1
 75
     1
176
     1
175
     1
176
     1
 42
1.0
176
     1
 92
        8
176
     1
 66
   257
176
     1
 43
1.0
176
     1
 76
     1
176
     1
 77
     6
176
     1
 78
     2
176
     1
 67
     8
425
  7895160
176
     1
 79
     3
176
     1
170
     0
176
     1
171
     0
176
     1
290
     0
176
     1
 93
        5
176
     1
 44
0.0
176
     1
173
     0
176
     1
  0
VISUALSTYLE
  5
1FE
102
{ACAD_REACTORS
330
1E7
102
}
330
1E7
100
AcDbVisualStyle
  2
Shaded with edges
 70
    26
177
     2
291
     0
 71
     2
176
     1
 72
     2
176
     1
 73
     1
176
     1
 90
        2
176
     1
 40
0.6
176
     1
 41
30.0
176
     1
 62
     5
 63
     7
421
 16777215
176
     1
 74
     1
176
     1
 91
       10
176
     1
 64
     7
176
     1
 65
   257
176
     1
 75
     2
176
     1
175
     1
176
     1
 42
1.0
176
     1
 92
        8
176
     1
 66
   257
176
     1
 43
1.0
176
     1
 76
     1
176
     1
 77
     6
176
     1
 78
     2
176
     1
 67
     7
176
     1
 79
     3
176
     1
170
     0
176
     1
171
     0
176
     1
290
     0
176
     1
 93
        5
176
     1
 44
0.0
176
     1
173
     0
176
     1
  0
VISUALSTYLE
  5
1FB
102
{ACAD_REACTORS
330
1E7
102
}
330
1E7
100
AcDbVisualStyle
  2
Shades of Gray
 70
    23
177
     2
291
     0
 71
     2
176
     1
 72
     2
176
     1
 73
     3
176
     1
 90
        0
176
     1
 40
0.6
176
     1
 41
30.0
176
     1
 62
     5
 63
     7
421
 16777215
176
     1
 74
     2
176
     1
 91
        2
176
     1
 64
     7
176
     1
 65
     7
176
     1
 75
     1
176
     1
175
     1
176
     1
 42
40.0
176
     1
 92
        8
176
     1
 66
     7
176
     1
 43
1.0
176
     1
 76
     1
176
     1
 77
     6
176
     1
 78
     2
176
     1
 67
     7
176
     1
 79
     3
176
     1
170
     0
176
     1
171
     0
176
     1
290
     0
176
     1
 93
        1
176
     1
 44
0.0
176
     1
173
     0
176
     1
  0
VISUALSTYLE
  5
1FC
102
{ACAD_REACTORS
330
1E7
102
}
330
1E7
100
AcDbVisualStyle
  2
Sketchy
 70
    24
177
     2
291
     0
 71
     1
176
     1
 72
     2
176
     1
 73
     2
176
     1
 90
        0
176
     1
 40
0.6
176
     1
 41
30.0
176
     1
 62
     5
 63
     7
421
 16777215
176
     1
 74
     2
176
     1
 91
        2
176
     1
 64
     7
176
     1
 65
     7
176
     1
 75
     1
176
     1
175
     1
176
     1
 42
40.0
176
     1
 92
       11
176
     1
 66
     7
176
     1
 43
1.0
176
     1
 76
     1
176
     1
 77
     6
176
     1
 78
     2
176
     1
 67
     7
176
     1
 79
     6
176
     1
170
     0
176
     1
171
     0
176
     1
290
     0
176
     1
 93
        1
176
     1
 44
0.0
176
     1
173
     0
176
     1
  0
VISUALSTYLE
  5
1F4
102
{ACAD_REACTORS
330
1E7
102
}
330
1E7
100
AcDbVisualStyle
  2
Thicken
 70
    13
177
     2
291
     1
 71
     2
176
     1
 72
     2
176
     1
 73
     0
176
     1
 90
        0
176
     1
 40
0.6
176
     1
 41
30.0
176
     1
 62
     5
 63
     7
421
 16777215
176
     1
 74
     1
176
     1
 91
        4
176
     1
 64
     7
176
     1
 65
   257
176
     1
 75
     1
176
     1
175
     1
176
     1
 42
1.0
176
     1
 92
       12
176
     1
 66
     7
176
     1
 43
1.0
176
     1
 76
     1
176
     1
 77
     6
176
     1
 78
     2
176
     1
 67
     7
176
     1
 79
     5
176
     1
170
     0
176
     1
171
     0
176
     1
290
     0
176
     1
 93
        1
176
     1
 44
0.0
176
     1
173
     0
176
     1
  0
VISUALSTYLE
  5
1ED
102
{ACAD_REACTORS
330
1E7
102
}
330
1E7
100
AcDbVisualStyle
  2
Wireframe
 70
     5
177
     2
291
     0
 71
     0
176
     1
 72
     2
176
     1
 73
     0
176
     1
 90
        0
176
     1
 40
0.6
176
     1
 41
30.0
176
     1
 62
     5
 63
     7
421
 16777215
176
     1
 74
     1
176
     1
 91
        4
176
     1
 64
     7
176
     1
 65
   257
176
     1
 75
     1
176
     1
175
     1
176
     1
 42
1.0
176
     1
 92
        0
176
     1
 66
   257
176
     1
 43
1.0
176
     1
 76
     1
176
     1
 77
     6
176
     1
 78
     2
176
     1
 67
     7
176
     1
 79
     3
176
     1
170
     0
176
     1
171
     0
176
     1
290
     0
176
     1
 93
        1
176
     1
 44
0.0
176
     1
173
     0
176
     1
  0
VISUALSTYLE
  5
1FD
102
{ACAD_REACTORS
330
1E7
102
}
330
1E7
100
AcDbVisualStyle
  2
X-Ray
 70
    25
177
     2
291
     0
 71
     2
176
     1
 72
     2
176
     1
 73
     1
176
     1
 90
        1
176
     1
 40
0.5
176
     1
 41
30.0
176
     1
 62
     5
 63
     7
421
 16777215
176
     1
 74
     1
176
     1
 91
        0
176
     1
 64
     7
176
     1
 65
   257
176
     1
 75
     1
176
     1
175
     1
176
     1
 42
1.0
176
     1
 92
        8
176
     1
 66
     7
176
     1
 43
1.0
176
     1
 76
     1
176
     1
 77
     6
176
     1
 78
     2
176
     1
 67
     7
176
     1
 79
     3
176
     1
170
     0
176
     1
171
     0
176
     1
290
     0
176
     1
 93
       13
176
     1
 44
0.0
176
     1
173
     0
176
     1
  0
DICTIONARYVAR
  5
210
102
{ACAD_REACTORS
330
20E
102
}
330
20E
100
DictionaryVariables
280
     0
  1
Standard
  0
DICTIONARYVAR
  5
20F
102
{ACAD_REACTORS
330
20E
102
}
330
20E
100
DictionaryVariables
280
     0
  1
Standard
  0
DICTIONARYVAR
  5
211
102
{ACAD_REACTORS
330
20E
102
}
330
20E
100
DictionaryVariables
280
     0
  1
0
  0
DICTIONARY
  5
20B
330
205
100
AcDbDictionary
280
     1
281
     1
  3
ACAD_ROUNDTRIP_2008_TABLESTYLE_CELLSTYLEMAP
360
20C
  0
CELLSTYLEMAP
  5
20C
102
{ACAD_REACTORS
330
20B
102
}
330
20B
100
AcDbCellStyleMap
 90
        3
300
CELLSTYLE
  1
TABLEFORMAT_BEGIN
 90
        5
170
     1
 91
        0
 92
    32768
 62
   257
 93
        1
300
CONTENTFORMAT
  1
CONTENTFORMAT_BEGIN
 90
        0
 91
        0
 92
        4
 93
        0
300

 40
0.0
140
1.0
 94
        5
 62
     0
340
11
144
6.0
309
CONTENTFORMAT_END
171
     1
301
MARGIN
  1
CELLMARGIN_BEGIN
 40
1.5
 40
1.5
 40
1.5
 40
1.5
 40
1.5
 40
1.5
309
CELLMARGIN_END
 94
        6
 95
        1
302
GRIDFORMAT
  1
GRIDFORMAT_BEGIN
 90
        0
 91
        1
 62
     0
 92
       -2
340
14
 93
        0
 40
0.045
309
GRIDFORMAT_END
 95
        2
302
GRIDFORMAT
  1
GRIDFORMAT_BEGIN
 90
        0
 91
        1
 62
     0
 92
       -2
340
14
 93
        0
 40
0.045
309
GRIDFORMAT_END
 95
        4
302
GRIDFORMAT
  1
GRIDFORMAT_BEGIN
 90
        0
 91
        1
 62
     0
 92
       -2
340
14
 93
        0
 40
0.045
309
GRIDFORMAT_END
 95
        8
302
GRIDFORMAT
  1
GRIDFORMAT_BEGIN
 90
        0
 91
        1
 62
     0
 92
       -2
340
14
 93
        0
 40
0.045
309
GRIDFORMAT_END
 95
       16
302
GRIDFORMAT
  1
GRIDFORMAT_BEGIN
 90
        0
 91
        1
 62
     0
 92
       -2
340
14
 93
        0
 40
0.045
309
GRIDFORMAT_END
 95
       32
302
GRIDFORMAT
  1
GRIDFORMAT_BEGIN
 90
        0
 91
        1
 62
     0
 92
       -2
340
14
 93
        0
 40
0.045
309
GRIDFORMAT_END
309
TABLEFORMAT_END
  1
CELLSTYLE_BEGIN
 90
        1
 91
        1
300
_TITLE
309
CELLSTYLE_END
300
CELLSTYLE
  1
TABLEFORMAT_BEGIN
 90
        5
170
     1
 91
        0
 92
        0
 62
   257
 93
        1
300
CONTENTFORMAT
  1
CONTENTFORMAT_BEGIN
 90
        0
 91
        0
 92
        4
 93
        0
300

 40
0.0
140
1.0
 94
        5
 62
     0
340
11
144
4.5
309
CONTENTFORMAT_END
171
     1
301
MARGIN
  1
CELLMARGIN_BEGIN
 40
1.5
 40
1.5
 40
1.5
 40
1.5
 40
1.5
 40
1.5
309
CELLMARGIN_END
 94
        6
 95
        1
302
GRIDFORMAT
  1
GRIDFORMAT_BEGIN
 90
        0
 91
        1
 62
     0
 92
       -2
340
14
 93
        0
 40
0.045
309
GRIDFORMAT_END
 95
        2
302
GRIDFORMAT
  1
GRIDFORMAT_BEGIN
 90
        0
 91
        1
 62
     0
 92
       -2
340
14
 93
        0
 40
0.045
309
GRIDFORMAT_END
 95
        4
302
GRIDFORMAT
  1
GRIDFORMAT_BEGIN
 90
        0
 91
        1
 62
     0
 92
       -2
340
14
 93
        0
 40
0.045
309
GRIDFORMAT_END
 95
        8
302
GRIDFORMAT
  1
GRIDFORMAT_BEGIN
 90
        0
 91
        1
 62
     0
 92
       -2
340
14
 93
        0
 40
0.045
309
GRIDFORMAT_END
 95
       16
302
GRIDFORMAT
  1
GRIDFORMAT_BEGIN
 90
        0
 91
        1
 62
     0
 92
       -2
340
14
 93
        0
 40
0.045
309
GRIDFORMAT_END
 95
       32
302
GRIDFORMAT
  1
GRIDFORMAT_BEGIN
 90
        0
 91
        1
 62
     0
 92
       -2
340
14
 93
        0
 40
0.045
309
GRIDFORMAT_END
309
TABLEFORMAT_END
  1
CELLSTYLE_BEGIN
 90
        2
 91
        1
300
_HEADER
309
CELLSTYLE_END
300
CELLSTYLE
  1
TABLEFORMAT_BEGIN
 90
        5
170
     1
 91
        0
 92
        0
 62
   257
 93
        1
300
CONTENTFORMAT
  1
CONTENTFORMAT_BEGIN
 90
        0
 91
        0
 92
        4
 93
        0
300

 40
0.0
140
1.0
 94
        2
 62
     0
340
11
144
4.5
309
CONTENTFORMAT_END
171
     1
301
MARGIN
  1
CELLMARGIN_BEGIN
 40
1.5
 40
1.5
 40
1.5
 40
1.5
 40
1.5
 40
1.5
309
CELLMARGIN_END
 94
        6
 95
        1
302
GRIDFORMAT
  1
GRIDFORMAT_BEGIN
 90
        0
 91
        1
 62
     0
 92
       -2
340
14
 93
        0
 40
0.045
309
GRIDFORMAT_END
 95
        2
302
GRIDFORMAT
  1
GRIDFORMAT_BEGIN
 90
        0
 91
        1
 62
     0
 92
       -2
340
14
 93
        0
 40
0.045
309
GRIDFORMAT_END
 95
        4
302
GRIDFORMAT
  1
GRIDFORMAT_BEGIN
 90
        0
 91
        1
 62
     0
 92
       -2
340
14
 93
        0
 40
0.045
309
GRIDFORMAT_END
 95
        8
302
GRIDFORMAT
  1
GRIDFORMAT_BEGIN
 90
        0
 91
        1
 62
     0
 92
       -2
340
14
 93
        0
 40
0.045
309
GRIDFORMAT_END
 95
       16
302
GRIDFORMAT
  1
GRIDFORMAT_BEGIN
 90
        0
 91
        1
 62
     0
 92
       -2
340
14
 93
        0
 40
0.045
309
GRIDFORMAT_END
 95
       32
302
GRIDFORMAT
  1
GRIDFORMAT_BEGIN
 90
        0
 91
        1
 62
     0
 92
       -2
340
14
 93
        0
 40
0.045
309
GRIDFORMAT_END
309
TABLEFORMAT_END
  1
CELLSTYLE_BEGIN
 90
        3
 91
        2
300
_DATA
309
CELLSTYLE_END
  0
ENDSEC
  0
EOF
